<svg version="1.1" viewBox="0.0 0.0 800.4409448818898 400.2204724409449" fill="none" stroke="none" stroke-linecap="square" stroke-miterlimit="10" xmlns:xlink="http://www.w3.org/1999/xlink" xmlns="http://www.w3.org/2000/svg"><clipPath id="p.0"><path d="m0 0l800.4409 0l0 400.22046l-800.4409 0l0 -400.22046z" clip-rule="nonzero"/></clipPath><g clip-path="url(#p.0)"><path fill="#000000" fill-opacity="0.0" d="m0 0l800.4409 0l0 400.22046l-800.4409 0z" fill-rule="evenodd"/><path fill="#bfe6f2" d="m75.72693 17.629921l135.46457 0l0 59.90551l-135.46457 0z" fill-rule="evenodd"/><path stroke="#0098c3" stroke-width="3.0" stroke-linejoin="round" stroke-linecap="butt" d="m75.72693 17.629921l135.46457 0l0 59.90551l-135.46457 0z" fill-rule="evenodd"/><path fill="#000000" d="m115.16463 43.783924q-2.28125 0 -3.5 -1.6875q-1.203125 -1.703125 -1.203125 -5.25q0 -1.8125 0.34375 -3.0625q0.34375 -1.25 0.953125 -2.03125q0.625 -0.78125 1.453125 -1.125q0.84375 -0.359375 1.828125 -0.359375q0.828125 0 1.53125 0.21875q0.71875 0.21875 1.15625 0.53125l-0.5 1.40625q-0.453125 -0.296875 -0.96875 -0.484375q-0.5 -0.1875 -1.171875 -0.1875q-1.5 0 -2.171875 1.25q-0.671875 1.234375 -0.671875 3.84375q0 2.625 0.703125 4.046875q0.71875 1.421875 2.328125 1.421875q0.765625 0 1.234375 -0.1875q0.484375 -0.1875 0.921875 -0.484375l0.46875 1.3125q-0.421875 0.34375 -1.125 0.578125q-0.703125 0.25 -1.609375 0.25zm10.597412 -5.171875q0 1.15625 -0.21875 2.109375q-0.203125 0.9375 -0.625 1.609375q-0.40625 0.671875 -1.0625 1.046875q-0.640625 0.375 -1.515625 0.375q-0.875 0 -1.53125 -0.375q-0.65625 -0.375 -1.078125 -1.046875q-0.40625 -0.671875 -0.625 -1.609375q-0.203125 -0.953125 -0.203125 -2.109375q0 -1.140625 0.203125 -2.078125q0.21875 -0.953125 0.625 -1.640625q0.421875 -0.6875 1.078125 -1.046875q0.65625 -0.375 1.53125 -0.375q0.875 0 1.515625 0.375q0.65625 0.359375 1.0625 1.046875q0.421875 0.6875 0.625 1.640625q0.21875 0.9375 0.21875 2.078125zm-1.6875 0q0 -0.8125 -0.09375 -1.5q-0.09375 -0.6875 -0.296875 -1.171875q-0.203125 -0.5 -0.546875 -0.765625q-0.328125 -0.265625 -0.796875 -0.265625q-0.484375 0 -0.8125 0.265625q-0.328125 0.265625 -0.546875 0.765625q-0.203125 0.484375 -0.296875 1.171875q-0.09375 0.6875 -0.09375 1.5q0 0.828125 0.09375 1.515625q0.09375 0.671875 0.296875 1.15625q0.21875 0.484375 0.546875 0.765625q0.328125 0.265625 0.8125 0.265625q0.46875 0 0.796875 -0.265625q0.34375 -0.28125 0.546875 -0.765625q0.203125 -0.484375 0.296875 -1.15625q0.09375 -0.6875 0.09375 -1.515625zm4.028473 -4.625q0.6875 -0.203125 1.484375 -0.34375q0.8125 -0.140625 1.484375 -0.140625q0.734375 0 1.328125 0.203125q0.59375 0.1875 1.015625 0.65625q0.421875 0.46875 0.65625 1.265625q0.234375 0.78125 0.234375 1.96875l0 5.90625l-1.609375 0l0 -5.78125q0 -1.453125 -0.375 -2.125q-0.375 -0.671875 -1.40625 -0.671875q-0.53125 0 -1.203125 0.1875l0 8.390625l-1.609375 0l0 -9.515625zm10.49231 -0.28125l2.453125 0l0 1.390625l-2.453125 0l0 5.390625q0 1.0 0.359375 1.40625q0.359375 0.390625 0.984375 0.390625q0.3125 0 0.59375 -0.09375q0.296875 -0.09375 0.5 -0.21875l0.3125 1.28125q-0.765625 0.453125 -1.625 0.453125q-1.375 0 -2.0625 -0.765625q-0.671875 -0.78125 -0.671875 -2.578125l0 -9.28125l1.609375 -0.28125l0 2.90625zm4.6449127 0.203125q0.484375 -0.203125 1.015625 -0.3125q0.546875 -0.125 1.1875 -0.125q1.296875 0 2.109375 0.8125q0.828125 0.8125 0.828125 2.515625l0 6.5q-0.671875 0.1875 -1.375 0.296875q-0.6875 0.109375 -1.359375 0.109375q-0.671875 0 -1.265625 -0.171875q-0.578125 -0.15625 -1.03125 -0.53125q-0.4375 -0.375 -0.703125 -0.9375q-0.25 -0.578125 -0.25 -1.390625q0 -0.765625 0.234375 -1.328125q0.234375 -0.578125 0.640625 -0.953125q0.40625 -0.390625 0.96875 -0.578125q0.5625 -0.203125 1.21875 -0.203125q0.609375 0 1.359375 0.140625l0 -0.890625q0 -1.078125 -0.421875 -1.5q-0.421875 -0.4375 -1.203125 -0.4375q-0.421875 0 -0.8125 0.09375q-0.375 0.078125 -0.8125 0.25l-0.328125 -1.359375zm0.765625 6.734375q0 0.859375 0.4375 1.28125q0.453125 0.40625 1.265625 0.40625q0.515625 0 1.109375 -0.140625l0 -3.109375q-0.5625 -0.15625 -1.109375 -0.15625q-0.34375 0 -0.671875 0.09375q-0.3125 0.078125 -0.546875 0.28125q-0.234375 0.1875 -0.359375 0.515625q-0.125 0.328125 -0.125 0.828125zm8.784317 2.859375l-1.609375 0l0 -9.796875l1.609375 0l0 9.796875zm-0.8125 -11.53125q-0.421875 0 -0.734375 -0.28125q-0.296875 -0.296875 -0.296875 -0.78125q0 -0.484375 0.296875 -0.765625q0.3125 -0.296875 0.734375 -0.296875q0.4375 0 0.734375 0.296875q0.3125 0.28125 0.3125 0.765625q0 0.484375 -0.3125 0.78125q-0.296875 0.28125 -0.734375 0.28125zm3.7179413 2.015625q0.6875 -0.203125 1.484375 -0.34375q0.8125 -0.140625 1.484375 -0.140625q0.734375 0 1.328125 0.203125q0.59375 0.1875 1.015625 0.65625q0.421875 0.46875 0.65625 1.265625q0.234375 0.78125 0.234375 1.96875l0 5.90625l-1.609375 0l0 -5.78125q0 -1.453125 -0.375 -2.125q-0.375 -0.671875 -1.40625 -0.671875q-0.53125 0 -1.203125 0.1875l0 8.390625l-1.609375 0l0 -9.515625zm10.101685 5.09375q0.015625 0.703125 0.125 1.296875q0.109375 0.59375 0.359375 1.03125q0.25 0.4375 0.671875 0.6875q0.421875 0.234375 1.078125 0.234375q0.53125 0 0.984375 -0.15625q0.46875 -0.171875 0.671875 -0.28125l0.296875 1.296875q-0.234375 0.15625 -0.8125 0.359375q-0.5625 0.203125 -1.34375 0.203125q-1.03125 0 -1.734375 -0.375q-0.6875 -0.375 -1.140625 -1.046875q-0.4375 -0.671875 -0.625 -1.609375q-0.171875 -0.9375 -0.171875 -2.046875q0 -2.703125 0.890625 -3.953125q0.890625 -1.25 2.359375 -1.25q1.671875 0 2.359375 1.25q0.6875 1.25 0.6875 3.5q0 0.203125 0 0.421875q0 0.21875 -0.015625 0.4375l-4.640625 0zm1.609375 -4.25q-0.796875 0 -1.15625 0.796875q-0.359375 0.796875 -0.4375 2.140625l2.96875 0q0 -1.359375 -0.28125 -2.140625q-0.28125 -0.796875 -1.09375 -0.796875zm9.64975 0.328125q-0.59375 -0.25 -1.34375 -0.25q-0.6875 0 -1.28125 0.234375l0 8.359375l-1.609375 0l0 -9.359375q0.546875 -0.265625 1.234375 -0.4375q0.703125 -0.1875 1.546875 -0.1875q0.453125 0 0.890625 0.0625q0.453125 0.046875 0.84375 0.203125l-0.28125 1.375z" fill-rule="nonzero"/><path fill="#000000" d="m121.09508 65.50268l0 -12.921879l5.8125 0l0 1.421875l-4.125 0l0 4.015625l3.734375 0l0 1.40625l-3.734375 0l0 4.640629l4.421875 0l0 1.4375l-6.109375 0zm8.397873 -9.515629q0.6875 -0.203125 1.484375 -0.34375q0.8125 -0.140625 1.484375 -0.140625q0.734375 0 1.328125 0.203125q0.59375 0.1875 1.015625 0.65625q0.421875 0.46875 0.65625 1.265625q0.234375 0.78125 0.234375 1.96875l0 5.906254l-1.609375 0l0 -5.781254q0 -1.453125 -0.375 -2.125q-0.375 -0.671875 -1.40625 -0.671875q-0.53125 0 -1.203125 0.1875l0 8.390629l-1.609375 0l0 -9.515629zm14.820435 9.234379q0 1.046875 -0.28125 1.765625q-0.265625 0.71875 -0.734375 1.15625q-0.46875 0.453125 -1.09375 0.65625q-0.625 0.203125 -1.328125 0.203125q-0.59375 0 -1.203125 -0.125q-0.59375 -0.125 -1.09375 -0.390625l0.34375 -1.34375q0.328125 0.1875 0.8125 0.328125q0.484375 0.15625 1.015625 0.15625q0.90625 0 1.421875 -0.53125q0.53125 -0.515625 0.53125 -1.78125l0 -0.46875q-0.296875 0.140625 -0.640625 0.21875q-0.328125 0.078125 -0.765625 0.078125q-1.75 0 -2.5625 -1.2031288q-0.8125 -1.203125 -0.8125 -3.40625q0 -1.171875 0.21875 -2.109375q0.21875 -0.9375 0.671875 -1.59375q0.453125 -0.671875 1.171875 -1.015625q0.734375 -0.34375 1.78125 -0.34375q0.6875 0 1.34375 0.140625q0.671875 0.140625 1.203125 0.359375l0 9.250004zm-1.609375 -8.203129q-0.265625 -0.078125 -0.515625 -0.109375q-0.234375 -0.03125 -0.4375 -0.03125q-1.125 0 -1.640625 0.859375q-0.5 0.859375 -0.5 2.796875q0 1.765625 0.5 2.484375q0.5 0.71875 1.4375 0.71875q0.3125 0 0.59375 -0.078125q0.296875 -0.078125 0.5625 -0.203125l0 -6.4375zm6.1030884 8.484379l-1.609375 0l0 -9.796879l1.609375 0l0 9.796879zm-0.8125 -11.531254q-0.421875 0 -0.734375 -0.28125q-0.296875 -0.296875 -0.296875 -0.78125q0 -0.484375 0.296875 -0.765625q0.3125 -0.296875 0.734375 -0.296875q0.4375 0 0.734375 0.296875q0.3125 0.28125 0.3125 0.765625q0 0.484375 -0.3125 0.78125q-0.296875 0.28125 -0.734375 0.28125zm3.7179413 2.015625q0.6875 -0.203125 1.484375 -0.34375q0.8125 -0.140625 1.484375 -0.140625q0.734375 0 1.328125 0.203125q0.59375 0.1875 1.015625 0.65625q0.421875 0.46875 0.65625 1.265625q0.234375 0.78125 0.234375 1.96875l0 5.906254l-1.609375 0l0 -5.781254q0 -1.453125 -0.375 -2.125q-0.375 -0.671875 -1.40625 -0.671875q-0.53125 0 -1.203125 0.1875l0 8.390629l-1.609375 0l0 -9.515629zm10.101685 5.09375q0.015625 0.703125 0.125 1.296875q0.109375 0.59375 0.359375 1.03125q0.25 0.4375 0.671875 0.6875038q0.421875 0.234375 1.078125 0.234375q0.53125 0 0.984375 -0.15625q0.46875 -0.171875 0.671875 -0.2812538l0.296875 1.2968788q-0.234375 0.15625 -0.8125 0.359375q-0.5625 0.203125 -1.34375 0.203125q-1.03125 0 -1.734375 -0.375q-0.6875 -0.375 -1.140625 -1.046875q-0.4375 -0.6718788 -0.625 -1.6093788q-0.171875 -0.9375 -0.171875 -2.046875q0 -2.703125 0.890625 -3.953125q0.890625 -1.25 2.359375 -1.25q1.671875 0 2.359375 1.25q0.6875 1.25 0.6875 3.5q0 0.203125 0 0.421875q0 0.21875 -0.015625 0.4375l-4.640625 0zm1.609375 -4.25q-0.796875 0 -1.15625 0.796875q-0.359375 0.796875 -0.4375 2.140625l2.96875 0q0 -1.359375 -0.28125 -2.140625q-0.28125 -0.796875 -1.09375 -0.796875z" fill-rule="nonzero"/><path fill="#fce5cd" d="m265.86575 17.629921l135.46457 0l0 59.90551l-135.46457 0z" fill-rule="evenodd"/><path stroke="#ff9900" stroke-width="3.0" stroke-linejoin="round" stroke-linecap="butt" d="m265.86575 17.629921l135.46457 0l0 59.90551l-135.46457 0z" fill-rule="evenodd"/><path fill="#000000" d="m305.30347 54.783924q-2.28125 0 -3.5 -1.6875q-1.203125 -1.703125 -1.203125 -5.25q0 -1.8125 0.34375 -3.0625q0.34375 -1.25 0.953125 -2.03125q0.625 -0.78125 1.453125 -1.125q0.84375 -0.359375 1.828125 -0.359375q0.828125 0 1.53125 0.21875q0.71875 0.21875 1.15625 0.53125l-0.5 1.40625q-0.453125 -0.296875 -0.96875 -0.484375q-0.5 -0.1875 -1.171875 -0.1875q-1.5 0 -2.171875 1.25q-0.671875 1.234375 -0.671875 3.84375q0 2.625 0.703125 4.046875q0.71875 1.421875 2.328125 1.421875q0.765625 0 1.234375 -0.1875q0.484375 -0.1875 0.921875 -0.484375l0.46875 1.3125q-0.421875 0.34375 -1.125 0.578125q-0.703125 0.25 -1.609375 0.25zm10.597412 -5.171875q0 1.15625 -0.21875 2.109375q-0.203125 0.9375 -0.625 1.609375q-0.40625 0.671875 -1.0625 1.046875q-0.640625 0.375 -1.515625 0.375q-0.875 0 -1.53125 -0.375q-0.65625 -0.375 -1.078125 -1.046875q-0.40625 -0.671875 -0.625 -1.609375q-0.203125 -0.953125 -0.203125 -2.109375q0 -1.140625 0.203125 -2.078125q0.21875 -0.953125 0.625 -1.640625q0.421875 -0.6875 1.078125 -1.046875q0.65625 -0.375 1.53125 -0.375q0.875 0 1.515625 0.375q0.65625 0.359375 1.0625 1.046875q0.421875 0.6875 0.625 1.640625q0.21875 0.9375 0.21875 2.078125zm-1.6875 0q0 -0.8125 -0.09375 -1.5q-0.09375 -0.6875 -0.296875 -1.171875q-0.203125 -0.5 -0.546875 -0.765625q-0.328125 -0.265625 -0.796875 -0.265625q-0.484375 0 -0.8125 0.265625q-0.328125 0.265625 -0.546875 0.765625q-0.203125 0.484375 -0.296875 1.171875q-0.09375 0.6875 -0.09375 1.5q0 0.828125 0.09375 1.515625q0.09375 0.671875 0.296875 1.15625q0.21875 0.484375 0.546875 0.765625q0.328125 0.265625 0.8125 0.265625q0.46875 0 0.796875 -0.265625q0.34375 -0.28125 0.546875 -0.765625q0.203125 -0.484375 0.296875 -1.15625q0.09375 -0.6875 0.09375 -1.515625zm4.028473 -4.625q0.6875 -0.203125 1.484375 -0.34375q0.8125 -0.140625 1.484375 -0.140625q0.734375 0 1.328125 0.203125q0.59375 0.1875 1.015625 0.65625q0.421875 0.46875 0.65625 1.265625q0.234375 0.78125 0.234375 1.96875l0 5.90625l-1.609375 0l0 -5.78125q0 -1.453125 -0.375 -2.125q-0.375 -0.671875 -1.40625 -0.671875q-0.53125 0 -1.203125 0.1875l0 8.390625l-1.609375 0l0 -9.515625zm10.49231 -0.28125l2.453125 0l0 1.390625l-2.453125 0l0 5.390625q0 1.0 0.359375 1.40625q0.359375 0.390625 0.984375 0.390625q0.3125 0 0.59375 -0.09375q0.296875 -0.09375 0.5 -0.21875l0.3125 1.28125q-0.765625 0.453125 -1.625 0.453125q-1.375 0 -2.0625 -0.765625q-0.671875 -0.78125 -0.671875 -2.578125l0 -9.28125l1.609375 -0.28125l0 2.90625zm4.6448975 0.203125q0.484375 -0.203125 1.015625 -0.3125q0.546875 -0.125 1.1875 -0.125q1.296875 0 2.109375 0.8125q0.828125 0.8125 0.828125 2.515625l0 6.5q-0.671875 0.1875 -1.375 0.296875q-0.6875 0.109375 -1.359375 0.109375q-0.671875 0 -1.265625 -0.171875q-0.578125 -0.15625 -1.03125 -0.53125q-0.4375 -0.375 -0.703125 -0.9375q-0.25 -0.578125 -0.25 -1.390625q0 -0.765625 0.234375 -1.328125q0.234375 -0.578125 0.640625 -0.953125q0.40625 -0.390625 0.96875 -0.578125q0.5625 -0.203125 1.21875 -0.203125q0.609375 0 1.359375 0.140625l0 -0.890625q0 -1.078125 -0.421875 -1.5q-0.421875 -0.4375 -1.203125 -0.4375q-0.421875 0 -0.8125 0.09375q-0.375 0.078125 -0.8125 0.25l-0.328125 -1.359375zm0.765625 6.734375q0 0.859375 0.4375 1.28125q0.453125 0.40625 1.265625 0.40625q0.515625 0 1.109375 -0.140625l0 -3.109375q-0.5625 -0.15625 -1.109375 -0.15625q-0.34375 0 -0.671875 0.09375q-0.3125 0.078125 -0.546875 0.28125q-0.234375 0.1875 -0.359375 0.515625q-0.125 0.328125 -0.125 0.828125zm8.784332 2.859375l-1.609375 0l0 -9.796875l1.609375 0l0 9.796875zm-0.8125 -11.53125q-0.421875 0 -0.734375 -0.28125q-0.296875 -0.296875 -0.296875 -0.78125q0 -0.484375 0.296875 -0.765625q0.3125 -0.296875 0.734375 -0.296875q0.4375 0 0.734375 0.296875q0.3125 0.28125 0.3125 0.765625q0 0.484375 -0.3125 0.78125q-0.296875 0.28125 -0.734375 0.28125zm3.717926 2.015625q0.6875 -0.203125 1.484375 -0.34375q0.8125 -0.140625 1.484375 -0.140625q0.734375 0 1.328125 0.203125q0.59375 0.1875 1.015625 0.65625q0.421875 0.46875 0.65625 1.265625q0.234375 0.78125 0.234375 1.96875l0 5.90625l-1.609375 0l0 -5.78125q0 -1.453125 -0.375 -2.125q-0.375 -0.671875 -1.40625 -0.671875q-0.53125 0 -1.203125 0.1875l0 8.390625l-1.609375 0l0 -9.515625zm10.101685 5.09375q0.015625 0.703125 0.125 1.296875q0.109375 0.59375 0.359375 1.03125q0.25 0.4375 0.671875 0.6875q0.421875 0.234375 1.078125 0.234375q0.53125 0 0.984375 -0.15625q0.46875 -0.171875 0.671875 -0.28125l0.296875 1.296875q-0.234375 0.15625 -0.8125 0.359375q-0.5625 0.203125 -1.34375 0.203125q-1.03125 0 -1.734375 -0.375q-0.6875 -0.375 -1.140625 -1.046875q-0.4375 -0.671875 -0.625 -1.609375q-0.171875 -0.9375 -0.171875 -2.046875q0 -2.703125 0.890625 -3.953125q0.890625 -1.25 2.359375 -1.25q1.671875 0 2.359375 1.25q0.6875 1.25 0.6875 3.5q0 0.203125 0 0.421875q0 0.21875 -0.015625 0.4375l-4.640625 0zm1.609375 -4.25q-0.796875 0 -1.15625 0.796875q-0.359375 0.796875 -0.4375 2.140625l2.96875 0q0 -1.359375 -0.28125 -2.140625q-0.28125 -0.796875 -1.09375 -0.796875zm9.64975 0.328125q-0.59375 -0.25 -1.34375 -0.25q-0.6875 0 -1.28125 0.234375l0 8.359375l-1.609375 0l0 -9.359375q0.546875 -0.265625 1.234375 -0.4375q0.703125 -0.1875 1.546875 -0.1875q0.453125 0 0.890625 0.0625q0.453125 0.046875 0.84375 0.203125l-0.28125 1.375z" fill-rule="nonzero"/><path fill="#fce5cd" d="m456.00458 17.629921l135.4646 0l0 59.90551l-135.4646 0z" fill-rule="evenodd"/><path stroke="#ff9900" stroke-width="3.0" stroke-linejoin="round" stroke-linecap="butt" d="m456.00458 17.629921l135.4646 0l0 59.90551l-135.4646 0z" fill-rule="evenodd"/><path fill="#000000" d="m492.99524 36.0808l1.15625 0q2.3125 0 2.3125 -2.09375q0 -0.65625 -0.203125 -1.0625q-0.1875 -0.421875 -0.515625 -0.65625q-0.3125 -0.234375 -0.734375 -0.328125q-0.421875 -0.09375 -0.875 -0.09375q-0.28125 0 -0.578125 0.015625q-0.28125 0.015625 -0.5625 0.0625l0 4.15625zm0 1.34375l0 4.65625q0.34375 0.0625 0.6875 0.109375q0.359375 0.03125 0.6875 0.03125q0.53125 0 0.984375 -0.109375q0.46875 -0.125 0.8125 -0.375q0.34375 -0.265625 0.53125 -0.71875q0.203125 -0.46875 0.203125 -1.140625q0 -1.15625 -0.625 -1.796875q-0.625 -0.65625 -1.9375 -0.65625l-1.34375 0zm-1.6875 -6.671875q0.65625 -0.140625 1.328125 -0.21875q0.6875 -0.09375 1.359375 -0.09375q0.84375 0 1.59375 0.15625q0.765625 0.15625 1.34375 0.546875q0.578125 0.375 0.921875 1.0q0.34375 0.625 0.34375 1.5625q0 1.15625 -0.484375 1.90625q-0.484375 0.734375 -1.25 1.078125q0.953125 0.375 1.5625 1.140625q0.625 0.765625 0.625 2.109375q0 1.0 -0.328125 1.703125q-0.328125 0.6875 -0.9375 1.125q-0.59375 0.4375 -1.421875 0.640625q-0.828125 0.1875 -1.8125 0.1875q-0.65625 0 -1.375 -0.078125q-0.703125 -0.078125 -1.46875 -0.21875l0 -12.546875zm15.90741 7.859375q0 1.15625 -0.21875 2.109375q-0.203125 0.9375 -0.625 1.609375q-0.40625 0.671875 -1.0625 1.046875q-0.640625 0.375 -1.515625 0.375q-0.875 0 -1.53125 -0.375q-0.65625 -0.375 -1.078125 -1.046875q-0.40625 -0.671875 -0.625 -1.609375q-0.203125 -0.953125 -0.203125 -2.109375q0 -1.140625 0.203125 -2.078125q0.21875 -0.953125 0.625 -1.640625q0.421875 -0.6875 1.078125 -1.046875q0.65625 -0.375 1.53125 -0.375q0.875 0 1.515625 0.375q0.65625 0.359375 1.0625 1.046875q0.421875 0.6875 0.625 1.640625q0.21875 0.9375 0.21875 2.078125zm-1.6875 0q0 -0.8125 -0.09375 -1.5q-0.09375 -0.6875 -0.296875 -1.171875q-0.203125 -0.5 -0.546875 -0.765625q-0.328125 -0.265625 -0.796875 -0.265625q-0.484375 0 -0.8125 0.265625q-0.328125 0.265625 -0.546875 0.765625q-0.203125 0.484375 -0.296875 1.171875q-0.09375 0.6875 -0.09375 1.5q0 0.828125 0.09375 1.515625q0.09375 0.671875 0.296875 1.15625q0.21875 0.484375 0.546875 0.765625q0.328125 0.265625 0.8125 0.265625q0.46875 0 0.796875 -0.265625q0.34375 -0.28125 0.546875 -0.765625q0.203125 -0.484375 0.296875 -1.15625q0.09375 -0.6875 0.09375 -1.515625zm10.325378 0q0 1.15625 -0.21875 2.109375q-0.203125 0.9375 -0.625 1.609375q-0.40625 0.671875 -1.0625 1.046875q-0.640625 0.375 -1.515625 0.375q-0.8750305 0 -1.5312805 -0.375q-0.65625 -0.375 -1.078125 -1.046875q-0.40625 -0.671875 -0.625 -1.609375q-0.203125 -0.953125 -0.203125 -2.109375q0 -1.140625 0.203125 -2.078125q0.21875 -0.953125 0.625 -1.640625q0.421875 -0.6875 1.078125 -1.046875q0.65625 -0.375 1.5312805 -0.375q0.875 0 1.515625 0.375q0.65625 0.359375 1.0625 1.046875q0.421875 0.6875 0.625 1.640625q0.21875 0.9375 0.21875 2.078125zm-1.6875 0q0 -0.8125 -0.09375 -1.5q-0.09375 -0.6875 -0.296875 -1.171875q-0.203125 -0.5 -0.546875 -0.765625q-0.328125 -0.265625 -0.796875 -0.265625q-0.48440552 0 -0.8125305 0.265625q-0.328125 0.265625 -0.546875 0.765625q-0.203125 0.484375 -0.296875 1.171875q-0.09375 0.6875 -0.09375 1.5q0 0.828125 0.09375 1.515625q0.09375 0.671875 0.296875 1.15625q0.21875 0.484375 0.546875 0.765625q0.328125 0.265625 0.8125305 0.265625q0.46875 0 0.796875 -0.265625q0.34375 -0.28125 0.546875 -0.765625q0.203125 -0.484375 0.296875 -1.15625q0.09375 -0.6875 0.09375 -1.515625zm5.5284424 -4.90625l2.453125 0l0 1.390625l-2.453125 0l0 5.390625q0 1.0 0.359375 1.40625q0.359375 0.390625 0.984375 0.390625q0.3125 0 0.59375 -0.09375q0.296875 -0.09375 0.5 -0.21875l0.3125 1.28125q-0.765625 0.453125 -1.625 0.453125q-1.375 0 -2.0625 -0.765625q-0.671875 -0.78125 -0.671875 -2.578125l0 -9.28125l1.609375 -0.28125l0 2.90625zm5.8480225 8.65625q0.71875 0 1.078125 -0.390625q0.359375 -0.40625 0.359375 -1.0625q0 -0.40625 -0.15625 -0.6875q-0.140625 -0.296875 -0.390625 -0.515625q-0.234375 -0.234375 -0.5625 -0.40625q-0.3125 -0.1875 -0.625 -0.390625q-0.3125 -0.1875 -0.609375 -0.4375q-0.296875 -0.25 -0.53125 -0.578125q-0.234375 -0.328125 -0.375 -0.734375q-0.140625 -0.421875 -0.140625 -0.984375q0 -1.21875 0.75 -1.953125q0.765625 -0.75 2.046875 -0.75q0.546875 0 1.03125 0.140625q0.484375 0.140625 0.796875 0.296875l-0.359375 1.296875q-0.328125 -0.1875 -0.671875 -0.28125q-0.328125 -0.09375 -0.71875 -0.09375q-0.59375 0 -0.953125 0.34375q-0.359375 0.34375 -0.359375 1.0q0 0.375 0.125 0.640625q0.140625 0.265625 0.34375 0.484375q0.21875 0.21875 0.484375 0.40625q0.28125 0.1875 0.578125 0.34375q0.359375 0.203125 0.703125 0.453125q0.34375 0.25 0.609375 0.578125q0.28125 0.3125 0.4375 0.75q0.171875 0.4375 0.171875 1.0625q0 1.28125 -0.765625 2.078125q-0.75 0.78125 -2.203125 0.78125q-0.734375 0 -1.34375 -0.21875q-0.59375 -0.203125 -0.890625 -0.359375l0.328125 -1.328125q0.28125 0.140625 0.75 0.328125q0.484375 0.1875 1.0625 0.1875zm6.5024414 -8.65625l2.453125 0l0 1.390625l-2.453125 0l0 5.390625q0 1.0 0.359375 1.40625q0.359375 0.390625 0.984375 0.390625q0.3125 0 0.59375 -0.09375q0.296875 -0.09375 0.5 -0.21875l0.3125 1.28125q-0.765625 0.453125 -1.625 0.453125q-1.375 0 -2.0625 -0.765625q-0.671875 -0.78125 -0.671875 -2.578125l0 -9.28125l1.609375 -0.28125l0 2.90625zm8.723022 1.453125q-0.59375 -0.25 -1.34375 -0.25q-0.6875 0 -1.28125 0.234375l0 8.359375l-1.609375 0l0 -9.359375q0.546875 -0.265625 1.234375 -0.4375q0.703125 -0.1875 1.546875 -0.1875q0.453125 0 0.890625 0.0625q0.453125 0.046875 0.84375 0.203125l-0.28125 1.375zm1.7611084 -1.25q0.484375 -0.203125 1.015625 -0.3125q0.546875 -0.125 1.1875 -0.125q1.296875 0 2.109375 0.8125q0.828125 0.8125 0.828125 2.515625l0 6.5q-0.671875 0.1875 -1.375 0.296875q-0.6875 0.109375 -1.359375 0.109375q-0.671875 0 -1.265625 -0.171875q-0.578125 -0.15625 -1.03125 -0.53125q-0.4375 -0.375 -0.703125 -0.9375q-0.25 -0.578125 -0.25 -1.390625q0 -0.765625 0.234375 -1.328125q0.234375 -0.578125 0.640625 -0.953125q0.40625 -0.390625 0.96875 -0.578125q0.5625 -0.203125 1.21875 -0.203125q0.609375 0 1.359375 0.140625l0 -0.890625q0 -1.078125 -0.421875 -1.5q-0.421875 -0.4375 -1.203125 -0.4375q-0.421875 0 -0.8125 0.09375q-0.375 0.078125 -0.8125 0.25l-0.328125 -1.359375zm0.765625 6.734375q0 0.859375 0.4375 1.28125q0.453125 0.40625 1.265625 0.40625q0.515625 0 1.109375 -0.140625l0 -3.109375q-0.5625 -0.15625 -1.109375 -0.15625q-0.34375 0 -0.671875 0.09375q-0.3125 0.078125 -0.546875 0.28125q-0.234375 0.1875 -0.359375 0.515625q-0.125 0.328125 -0.125 0.828125zm8.768738 1.390625q0.53125 0.296875 1.15625 0.296875q0.46875 0 0.8125 -0.1875q0.359375 -0.1875 0.609375 -0.609375q0.25 -0.4375 0.375 -1.140625q0.140625 -0.71875 0.140625 -1.765625q0 -2.015625 -0.515625 -2.875q-0.515625 -0.875 -1.625 -0.875q-0.21875 0 -0.46875 0.03125q-0.234375 0.03125 -0.484375 0.109375l0 7.015625zm0 4.921875l-1.609375 0l0 -12.984375q0.515625 -0.21875 1.171875 -0.359375q0.671875 -0.140625 1.359375 -0.140625q1.03125 0 1.765625 0.359375q0.734375 0.34375 1.1875 1.015625q0.46875 0.65625 0.671875 1.625q0.21875 0.953125 0.21875 2.1875q0 2.46875 -0.796875 3.78125q-0.78125 1.3125 -2.578125 1.3125q-0.421875 0 -0.765625 -0.09375q-0.328125 -0.078125 -0.625 -0.234375l0 3.53125z" fill-rule="nonzero"/><path fill="#000000" d="m507.0304 64.34643q1.0 0 1.546875 -0.5625038q0.5625 -0.5625 0.5625 -1.515625q0 -0.5 -0.171875 -0.890625q-0.171875 -0.390625 -0.4375 -0.703125q-0.265625 -0.328125 -0.625 -0.578125q-0.359375 -0.265625 -0.71875 -0.53125q-0.4375 -0.296875 -0.90625 -0.625q-0.46875 -0.34375 -0.859375 -0.78125q-0.375 -0.453125 -0.625 -1.046875q-0.234375 -0.609375 -0.234375 -1.40625q0 -0.78125 0.265625 -1.40625q0.28125 -0.640625 0.75 -1.09375q0.484375 -0.453125 1.140625 -0.6875q0.671875 -0.25 1.4375 -0.25q0.734375 0 1.375 0.1875q0.640625 0.1875 1.0625 0.453125l-0.515625 1.328125q-0.390625 -0.265625 -0.859375 -0.40625q-0.453125 -0.140625 -0.953125 -0.140625q-0.921875 0 -1.46875 0.5q-0.546875 0.484375 -0.546875 1.4375q0 0.53125 0.171875 0.921875q0.1875 0.390625 0.46875 0.71875q0.296875 0.3125 0.671875 0.578125q0.375 0.25 0.8125 0.53125q0.421875 0.28125 0.875 0.625q0.453125 0.328125 0.8125 0.765625q0.359375 0.4375 0.59375 1.03125q0.234375 0.578125 0.234375 1.375q0 0.734375 -0.234375 1.390625q-0.21875 0.6562538 -0.6875 1.1562538q-0.46875 0.484375 -1.1875 0.78125q-0.71875 0.28125 -1.6875 0.28125q-0.90625 0 -1.578125 -0.203125q-0.671875 -0.203125 -1.1875 -0.546875l0.515625 -1.3437538q0.484375 0.296875 1.0 0.4843788q0.515625 0.171875 1.1875 0.171875zm9.10144 1.40625q-1.0 0 -1.671875 -0.390625q-0.671875 -0.40625 -1.09375 -1.078125q-0.421875 -0.6875038 -0.609375 -1.6093788q-0.171875 -0.9375 -0.171875 -2.046875q0 -2.421875 0.890625 -3.78125q0.890625 -1.375 2.671875 -1.375q0.546875 0 0.96875 0.125q0.4375 0.125 0.8125 0.328125l-0.40625 1.328125q-0.578125 -0.375 -1.296875 -0.375q-1.0 0 -1.484375 0.921875q-0.46875 0.90625 -0.46875 2.828125q0 0.8125 0.09375 1.5q0.09375 0.671875 0.328125 1.15625q0.234375 0.484375 0.609375 0.7656288q0.390625 0.28125 0.984375 0.28125q0.40625 0 0.734375 -0.09375q0.328125 -0.109375 0.625 -0.2812538l0.359375 1.2500038q-0.3125 0.203125 -0.8125 0.375q-0.484375 0.171875 -1.0625 0.171875zm7.8356934 -8.593754q-0.59375 -0.25 -1.34375 -0.25q-0.6875 0 -1.28125 0.234375l0 8.359379l-1.609375 0l0 -9.359379q0.546875 -0.265625 1.234375 -0.4375q0.703125 -0.1875 1.546875 -0.1875q0.453125 0 0.890625 0.0625q0.453125 0.046875 0.84375 0.203125l-0.28125 1.375zm3.4942627 8.343754l-1.609375 0l0 -9.796879l1.609375 0l0 9.796879zm-0.8125 -11.531254q-0.421875 0 -0.734375 -0.28125q-0.296875 -0.296875 -0.296875 -0.78125q0 -0.484375 0.296875 -0.765625q0.3125 -0.296875 0.734375 -0.296875q0.4375 0 0.734375 0.296875q0.3125 0.28125 0.3125 0.765625q0 0.484375 -0.3125 0.78125q-0.296875 0.28125 -0.734375 0.28125zm5.3116455 10.062504q0.53125 0.296875 1.15625 0.296875q0.46875 0 0.8125 -0.1875q0.359375 -0.18750381 0.609375 -0.6093788q0.25 -0.4375 0.375 -1.140625q0.140625 -0.71875 0.140625 -1.765625q0 -2.015625 -0.515625 -2.875q-0.515625 -0.875 -1.625 -0.875q-0.21875 0 -0.46875 0.03125q-0.234375 0.03125 -0.484375 0.109375l0 7.015629zm0 4.921875l-1.609375 0l0 -12.984379q0.515625 -0.21875 1.171875 -0.359375q0.671875 -0.140625 1.359375 -0.140625q1.03125 0 1.765625 0.359375q0.734375 0.34375 1.1875 1.015625q0.46875 0.65625 0.671875 1.625q0.21875 0.953125 0.21875 2.1875q0 2.46875 -0.796875 3.7812538q-0.78125 1.3125 -2.578125 1.3125q-0.421875 0 -0.765625 -0.09375q-0.328125 -0.078125 -0.625 -0.234375l0 3.53125zm8.618713 -13.250004l2.453125 0l0 1.390625l-2.453125 0l0 5.390625q0 1.0 0.359375 1.40625q0.359375 0.3906288 0.984375 0.3906288q0.3125 0 0.59375 -0.09375q0.296875 -0.09375 0.5 -0.21875381l0.3125 1.2812538q-0.765625 0.453125 -1.625 0.453125q-1.375 0 -2.0625 -0.765625q-0.671875 -0.78125 -0.671875 -2.5781288l0 -9.28125l1.609375 -0.28125l0 2.90625z" fill-rule="nonzero"/><path fill="#000000" fill-opacity="0.0" d="m143.46457 77.55904l0.47244263 304.15747" fill-rule="evenodd"/><path stroke="#000000" stroke-width="1.0" stroke-linejoin="round" stroke-linecap="butt" stroke-dasharray="4.0,3.0" d="m143.46457 77.55904l0.47244263 304.15747" fill-rule="evenodd"/><path fill="#000000" fill-opacity="0.0" d="m333.6063 77.56167l0 304.15747" fill-rule="evenodd"/><path stroke="#000000" stroke-width="1.0" stroke-linejoin="round" stroke-linecap="butt" stroke-dasharray="4.0,3.0" d="m333.6063 77.56167l0 304.15747" fill-rule="evenodd"/><path fill="#ffffff" d="m135.25984 118.37794l17.354324 0l0 263.3386l-17.354324 0z" fill-rule="evenodd"/><path stroke="#000000" stroke-width="1.0" stroke-linejoin="round" stroke-linecap="butt" d="m135.25984 118.37794l17.354324 0l0 263.3386l-17.354324 0z" fill-rule="evenodd"/><path fill="#ffffff" d="m324.92914 131.64041l17.35434 0l0 250.07874l-17.35434 0z" fill-rule="evenodd"/><path stroke="#000000" stroke-width="1.0" stroke-linejoin="round" stroke-linecap="butt" d="m324.92914 131.64041l17.35434 0l0 250.07874l-17.35434 0z" fill-rule="evenodd"/><path fill="#000000" fill-opacity="0.0" d="m153.49924 143.56369l170.14172 0" fill-rule="evenodd"/><path stroke="#000000" stroke-width="1.0" stroke-linejoin="round" stroke-linecap="butt" d="m153.49924 143.5637l164.14172 0" fill-rule="evenodd"/><path fill="#000000" stroke="#000000" stroke-width="1.0" stroke-linecap="butt" d="m317.64096 145.21544l4.5381165 -1.6517334l-4.5381165 -1.6517334z" fill-rule="evenodd"/><path fill="#000000" fill-opacity="0.0" d="m155.32753 114.28193l166.89763 0l0 17.354332l-166.89763 0z" fill-rule="evenodd"/><path fill="#000000" d="m225.45735 136.90376q-0.78125 0 -1.3125 -0.296875q-0.53125 -0.3125 -0.859375 -0.84375q-0.328125 -0.546875 -0.46875 -1.265625q-0.140625 -0.734375 -0.140625 -1.609375q0 -1.90625 0.6875 -2.984375q0.703125 -1.078125 2.109375 -1.078125q0.421875 0 0.765625 0.109375q0.34375 0.09375 0.625 0.265625l-0.3125 1.03125q-0.453125 -0.28125 -1.015625 -0.28125q-0.796875 0 -1.171875 0.71875q-0.375 0.71875 -0.375 2.21875q0 0.640625 0.078125 1.171875q0.078125 0.53125 0.25 0.921875q0.1875 0.375 0.484375 0.59375q0.3125 0.21875 0.78125 0.21875q0.3125 0 0.5625 -0.078125q0.265625 -0.078125 0.5 -0.21875l0.28125 0.984375q-0.234375 0.15625 -0.625 0.28125q-0.390625 0.140625 -0.84375 0.140625zm6.1580505 -6.734375q-0.46875 -0.203125 -1.046875 -0.203125q-0.546875 0 -1.015625 0.1875l0 6.5625l-1.265625 0l0 -7.359375q0.421875 -0.203125 0.96875 -0.34375q0.5625 -0.140625 1.21875 -0.140625q0.34375 0 0.6875 0.046875q0.359375 0.046875 0.671875 0.15625l-0.21875 1.09375zm2.2074738 3.078125q0 0.546875 0.09375 1.015625q0.09375 0.453125 0.28125 0.8125q0.203125 0.34375 0.53125 0.53125q0.328125 0.1875 0.84375 0.1875q0.421875 0 0.78125 -0.125q0.359375 -0.125 0.53125 -0.21875l0.234375 1.015625q-0.203125 0.125 -0.65625 0.28125q-0.4375 0.15625 -1.046875 0.15625q-0.8125 0 -1.359375 -0.28125q-0.546875 -0.296875 -0.890625 -0.828125q-0.34375 -0.53125 -0.5 -1.265625q-0.140625 -0.734375 -0.140625 -1.609375q0 -2.125 0.703125 -3.109375q0.703125 -0.984375 1.859375 -0.984375q1.3125 0 1.84375 0.984375q0.546875 0.984375 0.546875 2.765625q0 0.15625 0 0.328125q0 0.15625 -0.015625 0.34375l-3.640625 0zm1.265625 -3.34375q-0.625 0 -0.921875 0.625q-0.28125 0.625 -0.34375 1.6875l2.34375 0q0 -1.0625 -0.234375 -1.6875q-0.21875 -0.625 -0.84375 -0.625zm4.374527 -0.71875q0.375 -0.15625 0.796875 -0.25q0.421875 -0.109375 0.921875 -0.109375q1.03125 0 1.671875 0.640625q0.65625 0.640625 0.65625 1.984375l0 5.109375q-0.53125 0.140625 -1.09375 0.21875q-0.546875 0.09375 -1.0625 0.09375q-0.53125 0 -1.0 -0.140625q-0.453125 -0.125 -0.796875 -0.40625q-0.34375 -0.296875 -0.5625 -0.734375q-0.203125 -0.453125 -0.203125 -1.109375q0 -0.59375 0.1875 -1.03125q0.1875 -0.453125 0.5 -0.75q0.328125 -0.3125 0.765625 -0.453125q0.4375 -0.15625 0.953125 -0.15625q0.484375 0 1.078125 0.109375l0 -0.703125q0 -0.84375 -0.328125 -1.171875q-0.328125 -0.34375 -0.953125 -0.34375q-0.328125 0 -0.640625 0.0625q-0.296875 0.0625 -0.625 0.203125l-0.265625 -1.0625zm0.59375 5.28125q0 0.6875 0.34375 1.015625q0.359375 0.3125 1.0 0.3125q0.40625 0 0.875 -0.109375l0 -2.4375q-0.4375 -0.125 -0.875 -0.125q-0.265625 0 -0.515625 0.078125q-0.25 0.0625 -0.4375 0.21875q-0.1875 0.140625 -0.296875 0.40625q-0.09375 0.25 -0.09375 0.640625zm6.813965 -5.4375l1.9375 0l0 1.078125l-1.9375 0l0 4.234375q0 0.796875 0.28125 1.109375q0.296875 0.3125 0.78125 0.3125q0.25 0 0.46875 -0.0625q0.234375 -0.078125 0.390625 -0.1875l0.25 1.015625q-0.59375 0.34375 -1.28125 0.34375q-1.078125 0 -1.609375 -0.609375q-0.53125 -0.609375 -0.53125 -2.015625l0 -7.2968826l1.25 -0.21875l0 2.2968826zm4.3344727 4.21875q0 0.546875 0.09375 1.015625q0.09375 0.453125 0.28125 0.8125q0.203125 0.34375 0.53125 0.53125q0.328125 0.1875 0.84375 0.1875q0.421875 0 0.78125 -0.125q0.359375 -0.125 0.53125 -0.21875l0.234375 1.015625q-0.203125 0.125 -0.65625 0.28125q-0.4375 0.15625 -1.046875 0.15625q-0.8125 0 -1.359375 -0.28125q-0.546875 -0.296875 -0.890625 -0.828125q-0.34375 -0.53125 -0.5 -1.265625q-0.140625 -0.734375 -0.140625 -1.609375q0 -2.125 0.703125 -3.109375q0.703125 -0.984375 1.859375 -0.984375q1.3125 0 1.84375 0.984375q0.546875 0.984375 0.546875 2.765625q0 0.15625 0 0.328125q0 0.15625 -0.015625 0.34375l-3.640625 0zm1.265625 -3.34375q-0.625 0 -0.921875 0.625q-0.28125 0.625 -0.34375 1.6875l2.34375 0q0 -1.0625 -0.234375 -1.6875q-0.21875 -0.625 -0.84375 -0.625z" fill-rule="nonzero"/><path fill="#000000" fill-opacity="0.0" d="m196.62808 218.64432l127.08661 0l0 17.354324l-127.08661 0z" fill-rule="evenodd"/><path fill="#000000" fill-opacity="0.0" d="m16.27559 131.64006l118.99213 0" fill-rule="evenodd"/><path stroke="#000000" stroke-width="1.0" stroke-linejoin="round" stroke-linecap="butt" d="m20.06559 131.64006l109.202126 0" fill-rule="evenodd"/><path fill="#000000" stroke="#000000" stroke-width="1.0" stroke-linecap="butt" d="m16.77559 131.64006c0 -0.9085083 0.73649216 -1.6450043 1.6450005 -1.6450043c0.9085083 0 1.6449986 0.736496 1.6449986 1.6450043c0 0.9085083 -0.73649025 1.6450043 -1.6449986 1.6450043c-0.9085083 0 -1.6450005 -0.736496 -1.6450005 -1.6450043z" fill-rule="nonzero"/><path fill="#000000" stroke="#000000" stroke-width="1.0" stroke-linecap="butt" d="m129.26772 133.2918l4.538101 -1.6517334l-4.538101 -1.6517334z" fill-rule="evenodd"/><path fill="#000000" fill-opacity="0.0" d="m16.27559 102.45905l112.25197 0l0 29.165352l-112.25197 0z" fill-rule="evenodd"/><path fill="#000000" d="m47.95253 119.007805q-0.421875 -0.234375 -0.90625 -0.234375q-0.359375 0 -0.640625 0.140625q-0.28125 0.140625 -0.484375 0.484375q-0.1875 0.34375 -0.296875 0.90625q-0.109375 0.546875 -0.109375 1.359375q0 1.59375 0.421875 2.28125q0.421875 0.671875 1.265625 0.671875q0.171875 0 0.359375 -0.015625q0.1875 -0.03125 0.390625 -0.09375l0 -5.5zm0 -4.625l1.265625 -0.21875l0 11.171875q-0.40625 0.171875 -0.9375 0.28125q-0.53125 0.109375 -1.078125 0.109375q-1.578125 0 -2.296875 -1.0q-0.703125 -1.015625 -0.703125 -3.0625q0 -0.921875 0.15625 -1.65625q0.15625 -0.734375 0.484375 -1.25q0.328125 -0.53125 0.84375 -0.8125q0.515625 -0.296875 1.21875 -0.296875q0.328125 0 0.5625 0.078125q0.25 0.0625 0.484375 0.171875l0 -3.515625zm8.469498 7.3125q0 0.90625 -0.15625 1.65625q-0.15625 0.734375 -0.5 1.265625q-0.328125 0.53125 -0.828125 0.828125q-0.5 0.28125 -1.1875 0.28125q-0.6875 0 -1.203125 -0.28125q-0.515625 -0.296875 -0.84375 -0.828125q-0.328125 -0.53125 -0.5 -1.265625q-0.15625 -0.75 -0.15625 -1.65625q0 -0.890625 0.15625 -1.640625q0.171875 -0.75 0.5 -1.28125q0.328125 -0.53125 0.84375 -0.828125q0.515625 -0.296875 1.203125 -0.296875q0.6875 0 1.1875 0.296875q0.5 0.296875 0.828125 0.828125q0.34375 0.53125 0.5 1.28125q0.15625 0.75 0.15625 1.640625zm-1.3125 0q0 -0.640625 -0.078125 -1.171875q-0.078125 -0.546875 -0.234375 -0.921875q-0.15625 -0.390625 -0.421875 -0.59375q-0.265625 -0.21875 -0.625 -0.21875q-0.390625 0 -0.65625 0.21875q-0.25 0.203125 -0.421875 0.59375q-0.15625 0.375 -0.234375 0.921875q-0.078125 0.53125 -0.078125 1.171875q0 0.65625 0.078125 1.1875q0.078125 0.53125 0.234375 0.921875q0.171875 0.375 0.421875 0.59375q0.265625 0.203125 0.65625 0.203125q0.359375 0 0.625 -0.203125q0.265625 -0.21875 0.421875 -0.59375q0.15625 -0.390625 0.234375 -0.921875q0.078125 -0.53125 0.078125 -1.1875zm5.5046234 4.03125q-0.78125 0 -1.3125 -0.296875q-0.53125 -0.3125 -0.859375 -0.84375q-0.328125 -0.546875 -0.46875 -1.265625q-0.140625 -0.734375 -0.140625 -1.609375q0 -1.90625 0.6875 -2.984375q0.703125 -1.078125 2.109375 -1.078125q0.421875 0 0.765625 0.109375q0.34375 0.09375 0.625 0.265625l-0.3125 1.03125q-0.453125 -0.28125 -1.015625 -0.28125q-0.796875 0 -1.171875 0.71875q-0.375 0.71875 -0.375 2.21875q0 0.640625 0.078125 1.171875q0.078125 0.53125 0.25 0.921875q0.1875 0.375 0.484375 0.59375q0.3125 0.21875 0.78125 0.21875q0.3125 0 0.5625 -0.078125q0.265625 -0.078125 0.5 -0.21875l0.28125 0.984375q-0.234375 0.15625 -0.625 0.28125q-0.390625 0.140625 -0.84375 0.140625zm7.5955505 -7.875q-0.609375 1.046875 -1.1875 1.921875q-0.5625 0.875 -1.109375 1.625q0.34375 0.421875 0.703125 0.9375q0.375 0.5 0.703125 1.0625q0.34375 0.546875 0.640625 1.09375q0.296875 0.546875 0.5 1.046875l-1.375 0q-0.21875 -0.484375 -0.515625 -1.0q-0.296875 -0.53125 -0.625 -1.03125q-0.3125 -0.515625 -0.640625 -0.96875q-0.3125 -0.453125 -0.59375 -0.765625l0 3.765625l-1.265625 0l0 -11.15625l1.265625 -0.21875l0 7.0q0.265625 -0.359375 0.5625 -0.796875q0.296875 -0.4375 0.59375 -0.875q0.296875 -0.453125 0.546875 -0.875q0.265625 -0.4375 0.453125 -0.765625l1.34375 0zm2.1476135 4.21875q0 0.546875 0.09375 1.015625q0.09375 0.453125 0.28125 0.8125q0.203125 0.34375 0.53125 0.53125q0.328125 0.1875 0.84375 0.1875q0.421875 0 0.78125 -0.125q0.359375 -0.125 0.53125 -0.21875l0.234375 1.015625q-0.203125 0.125 -0.65625 0.28125q-0.4375 0.15625 -1.046875 0.15625q-0.8125 0 -1.359375 -0.28125q-0.546875 -0.296875 -0.890625 -0.828125q-0.34375 -0.53125 -0.5 -1.265625q-0.140625 -0.734375 -0.140625 -1.609375q0 -2.125 0.703125 -3.109375q0.703125 -0.984375 1.859375 -0.984375q1.3125 0 1.84375 0.984375q0.546875 0.984375 0.546875 2.765625q0 0.15625 0 0.328125q0 0.15625 -0.015625 0.34375l-3.640625 0zm1.265625 -3.34375q-0.625 0 -0.921875 0.625q-0.28125 0.625 -0.34375 1.6875l2.34375 0q0 -1.0625 -0.234375 -1.6875q-0.21875 -0.625 -0.84375 -0.625zm7.577652 0.265625q-0.46875 -0.203125 -1.046875 -0.203125q-0.546875 0 -1.015625 0.1875l0 6.5625l-1.265625 0l0 -7.359375q0.421875 -0.203125 0.96875 -0.34375q0.5625 -0.140625 1.21875 -0.140625q0.34375 0 0.6875 0.046875q0.359375 0.046875 0.671875 0.15625l-0.21875 1.09375zm7.6652527 0q-0.46875 -0.203125 -1.046875 -0.203125q-0.546875 0 -1.015625 0.1875l0 6.5625l-1.265625 0l0 -7.359375q0.421875 -0.203125 0.96875 -0.34375q0.5625 -0.140625 1.21875 -0.140625q0.34375 0 0.6875 0.046875q0.359375 0.046875 0.671875 0.15625l-0.21875 1.09375zm6.244766 6.328125q-0.1875 0.078125 -0.46875 0.140625q-0.265625 0.0625 -0.5625 0.109375q-0.296875 0.0625 -0.609375 0.09375q-0.296875 0.03125 -0.546875 0.03125q-0.59375 0 -1.09375 -0.140625q-0.5 -0.140625 -0.859375 -0.484375q-0.34375 -0.359375 -0.53125 -0.953125q-0.1875 -0.609375 -0.1875 -1.53125l0 -4.734375l1.25 0l0 4.6875q0 1.125 0.34375 1.59375q0.34375 0.453125 1.046875 0.453125q0.234375 0 0.46875 -0.015625q0.234375 -0.03125 0.484375 -0.09375l0 -6.625l1.265625 0l0 7.46875zm2.2694092 -7.25q0.546875 -0.171875 1.171875 -0.28125q0.640625 -0.109375 1.15625 -0.109375q0.578125 0 1.046875 0.15625q0.46875 0.15625 0.796875 0.53125q0.328125 0.359375 0.515625 0.984375q0.1875 0.625 0.1875 1.546875l0 4.640625l-1.265625 0l0 -4.546875q0 -1.140625 -0.296875 -1.65625q-0.296875 -0.53125 -1.09375 -0.53125q-0.421875 0 -0.953125 0.140625l0 6.59375l-1.265625 0l0 -7.46875z" fill-rule="nonzero"/><path fill="#fce5cd" d="m646.14453 17.629921l135.46454 0l0 59.90551l-135.46454 0z" fill-rule="evenodd"/><path stroke="#ff9900" stroke-width="3.0" stroke-linejoin="round" stroke-linecap="butt" d="m646.14453 17.629921l135.46454 0l0 59.90551l-135.46454 0z" fill-rule="evenodd"/><path fill="#000000" d="m682.8929 42.14455q0.921875 0 1.4375 -0.515625q0.515625 -0.515625 0.515625 -1.40625q0 -0.46875 -0.15625 -0.828125q-0.15625 -0.359375 -0.40625 -0.65625q-0.25 -0.296875 -0.578125 -0.53125q-0.328125 -0.25 -0.6875 -0.5q-0.390625 -0.265625 -0.828125 -0.578125q-0.4375 -0.3125 -0.796875 -0.734375q-0.34375 -0.421875 -0.578125 -0.96875q-0.21875 -0.5625 -0.21875 -1.296875q0 -0.734375 0.25 -1.3125q0.25 -0.59375 0.6875 -1.0q0.453125 -0.421875 1.0625 -0.640625q0.625 -0.234375 1.328125 -0.234375q0.6875 0 1.28125 0.171875q0.59375 0.171875 0.984375 0.40625l-0.484375 1.234375q-0.359375 -0.234375 -0.78125 -0.359375q-0.421875 -0.140625 -0.890625 -0.140625q-0.859375 0 -1.375 0.46875q-0.5 0.453125 -0.5 1.328125q0 0.484375 0.15625 0.859375q0.171875 0.359375 0.4375 0.65625q0.265625 0.296875 0.625 0.546875q0.359375 0.234375 0.75 0.484375q0.40625 0.265625 0.8125 0.578125q0.421875 0.3125 0.75 0.71875q0.34375 0.40625 0.5625 0.953125q0.21875 0.546875 0.21875 1.296875q0 0.671875 -0.21875 1.28125q-0.203125 0.59375 -0.640625 1.0625q-0.4375 0.453125 -1.109375 0.734375q-0.65625 0.265625 -1.5625 0.265625q-0.828125 0 -1.453125 -0.203125q-0.625 -0.1875 -1.109375 -0.5l0.484375 -1.25q0.453125 0.28125 0.921875 0.453125q0.484375 0.15625 1.109375 0.15625zm10.962463 0.8125q-0.21875 0.09375 -0.546875 0.171875q-0.328125 0.078125 -0.6875 0.140625q-0.34375 0.0625 -0.703125 0.09375q-0.34375 0.046875 -0.640625 0.046875q-0.71875 0 -1.3125 -0.171875q-0.578125 -0.15625 -1.0 -0.5625q-0.40625 -0.421875 -0.640625 -1.140625q-0.21875 -0.71875 -0.21875 -1.8125l0 -5.59375l1.484375 0l0 5.546875q0 1.328125 0.40625 1.875q0.40625 0.546875 1.234375 0.546875q0.28125 0 0.5625 -0.015625q0.28125 -0.03125 0.578125 -0.125l0 -7.828125l1.484375 0l0 8.828125zm4.161255 -1.109375q0.5 0.28125 1.078125 0.28125q0.421875 0 0.75 -0.171875q0.328125 -0.171875 0.5625 -0.5625q0.234375 -0.40625 0.359375 -1.0625q0.125 -0.65625 0.125 -1.625q0 -1.875 -0.484375 -2.671875q-0.46875 -0.8125 -1.515625 -0.8125q-0.1875 0 -0.421875 0.03125q-0.21875 0.015625 -0.453125 0.078125l0 6.515625zm0 4.578125l-1.5 0l0 -12.0625q0.484375 -0.203125 1.09375 -0.328125q0.625 -0.140625 1.265625 -0.140625q0.953125 0 1.640625 0.34375q0.6875 0.328125 1.109375 0.9375q0.421875 0.609375 0.625 1.5q0.203125 0.890625 0.203125 2.046875q0 2.296875 -0.75 3.515625q-0.734375 1.203125 -2.390625 1.203125q-0.40625 0 -0.71875 -0.078125q-0.296875 -0.078125 -0.578125 -0.203125l0 3.265625zm7.639038 -7.3125q0.015625 0.65625 0.109375 1.203125q0.109375 0.546875 0.34375 0.953125q0.234375 0.40625 0.625 0.640625q0.390625 0.21875 1.0 0.21875q0.5 0 0.921875 -0.140625q0.4375 -0.15625 0.625 -0.25l0.265625 1.1875q-0.21875 0.15625 -0.75 0.328125q-0.53125 0.1875 -1.25 0.1875q-0.953125 0 -1.609375 -0.34375q-0.640625 -0.34375 -1.046875 -0.96875q-0.40625 -0.625 -0.59375 -1.484375q-0.171875 -0.875 -0.171875 -1.90625q0 -2.515625 0.828125 -3.671875q0.84375 -1.171875 2.203125 -1.171875q1.546875 0 2.1875 1.171875q0.640625 1.15625 0.640625 3.25q0 0.1875 0 0.390625q0 0.203125 -0.015625 0.40625l-4.3125 0zm1.5 -3.953125q-0.734375 0 -1.078125 0.75q-0.34375 0.75 -0.40625 2.0l2.75 0q0 -1.265625 -0.265625 -2.0q-0.25 -0.75 -1.0 -0.75zm8.961304 0.3125q-0.546875 -0.234375 -1.25 -0.234375q-0.640625 0 -1.1875 0.21875l0 7.765625l-1.484375 0l0 -8.703125q0.5 -0.234375 1.140625 -0.390625q0.65625 -0.171875 1.4375 -0.171875q0.40625 0 0.828125 0.046875q0.421875 0.046875 0.78125 0.1875l-0.265625 1.28125zm4.477722 6.0q0.203125 -0.6875 0.4375 -1.625q0.234375 -0.9375 0.453125 -1.9375q0.234375 -1.0 0.421875 -1.984375q0.203125 -0.984375 0.34375 -1.796875l1.5 0q-0.234375 1.140625 -0.546875 2.40625q-0.296875 1.265625 -0.625 2.484375q-0.3125 1.21875 -0.640625 2.3125q-0.328125 1.09375 -0.609375 1.890625l-1.53125 0q-0.28125 -0.796875 -0.609375 -1.890625q-0.328125 -1.09375 -0.65625 -2.3125q-0.3125 -1.21875 -0.625 -2.484375q-0.296875 -1.265625 -0.515625 -2.40625l1.578125 0q0.125 0.8125 0.328125 1.796875q0.203125 0.984375 0.421875 1.984375q0.21875 1.0 0.4375 1.9375q0.21875 0.9375 0.4375 1.625zm6.2542114 1.75l-1.484375 0l0 -9.09375l1.484375 0l0 9.09375zm-0.75 -10.703125q-0.390625 0 -0.6875 -0.265625q-0.28125 -0.28125 -0.28125 -0.734375q0 -0.4375 0.28125 -0.703125q0.296875 -0.28125 0.6875 -0.28125q0.40625 0 0.6875 0.28125q0.28125 0.265625 0.28125 0.703125q0 0.453125 -0.28125 0.734375q-0.28125 0.265625 -0.6875 0.265625zm4.7090454 9.640625q0.671875 0 1.0 -0.359375q0.34375 -0.375 0.34375 -0.984375q0 -0.390625 -0.140625 -0.65625q-0.140625 -0.265625 -0.375 -0.46875q-0.21875 -0.21875 -0.515625 -0.375q-0.28125 -0.171875 -0.578125 -0.359375q-0.296875 -0.171875 -0.578125 -0.40625q-0.28125 -0.234375 -0.5 -0.53125q-0.203125 -0.3125 -0.34375 -0.703125q-0.125 -0.390625 -0.125 -0.90625q0 -1.125 0.703125 -1.8125q0.703125 -0.703125 1.890625 -0.703125q0.515625 0 0.953125 0.140625q0.453125 0.125 0.75 0.28125l-0.328125 1.1875q-0.3125 -0.171875 -0.625 -0.25q-0.3125 -0.09375 -0.671875 -0.09375q-0.5625 0 -0.890625 0.328125q-0.328125 0.3125 -0.328125 0.921875q0 0.34375 0.125 0.609375q0.125 0.25 0.3125 0.453125q0.203125 0.1875 0.453125 0.359375q0.25 0.171875 0.53125 0.328125q0.328125 0.1875 0.640625 0.421875q0.328125 0.21875 0.578125 0.53125q0.25 0.296875 0.40625 0.703125q0.15625 0.40625 0.15625 0.984375q0 1.1875 -0.703125 1.921875q-0.6875 0.71875 -2.046875 0.71875q-0.6875 0 -1.25 -0.1875q-0.546875 -0.1875 -0.828125 -0.34375l0.3125 -1.234375q0.265625 0.140625 0.703125 0.3125q0.4375 0.171875 0.96875 0.171875zm10.486938 -3.484375q0 1.078125 -0.1875 1.953125q-0.1875 0.875 -0.578125 1.5q-0.390625 0.625 -1.0 0.96875q-0.59375 0.34375 -1.40625 0.34375q-0.8125 0 -1.421875 -0.34375q-0.59375 -0.34375 -0.984375 -0.96875q-0.390625 -0.625 -0.59375 -1.5q-0.1875 -0.875 -0.1875 -1.953125q0 -1.046875 0.1875 -1.921875q0.203125 -0.890625 0.59375 -1.515625q0.390625 -0.640625 0.984375 -0.984375q0.609375 -0.359375 1.421875 -0.359375q0.8125 0 1.40625 0.359375q0.609375 0.34375 1.0 0.984375q0.390625 0.625 0.578125 1.515625q0.1875 0.875 0.1875 1.921875zm-1.5625 0q0 -0.75 -0.09375 -1.375q-0.078125 -0.640625 -0.265625 -1.09375q-0.1875 -0.46875 -0.5 -0.71875q-0.3125 -0.25 -0.75 -0.25q-0.453125 0 -0.75 0.25q-0.296875 0.25 -0.5 0.71875q-0.203125 0.453125 -0.296875 1.09375q-0.078125 0.625 -0.078125 1.375q0 0.765625 0.078125 1.40625q0.09375 0.625 0.296875 1.078125q0.203125 0.453125 0.5 0.703125q0.296875 0.25 0.75 0.25q0.4375 0 0.75 -0.25q0.3125 -0.25 0.5 -0.703125q0.1875 -0.453125 0.265625 -1.078125q0.09375 -0.640625 0.09375 -1.40625zm7.679138 -3.203125q-0.546875 -0.234375 -1.25 -0.234375q-0.640625 0 -1.1875 0.21875l0 7.765625l-1.484375 0l0 -8.703125q0.5 -0.234375 1.140625 -0.390625q0.65625 -0.171875 1.4375 -0.171875q0.40625 0 0.828125 0.046875q0.421875 0.046875 0.78125 0.1875l-0.265625 1.28125z" fill-rule="nonzero"/><path fill="#000000" d="m659.4461 59.035175q0 2.21875 0.53125 4.1875q0.53125 1.9531288 1.515625 3.5781288l-1.203125 0.65625q-1.078125 -1.671875 -1.71875 -3.7968788q-0.625 -2.140625 -0.625 -4.625q0 -2.46875 0.625 -4.59375q0.640625 -2.140625 1.71875 -3.828125l1.203125 0.671875q-0.984375 1.625 -1.515625 3.578125q-0.53125 1.953125 -0.53125 4.171875zm4.7353516 4.125q0.671875 0 1.0 -0.359375q0.34375 -0.375 0.34375 -0.984375q0 -0.390625 -0.140625 -0.65625q-0.140625 -0.265625 -0.375 -0.46875q-0.21875 -0.21875 -0.515625 -0.375q-0.28125 -0.171875 -0.578125 -0.359375q-0.296875 -0.171875 -0.578125 -0.40625q-0.28125 -0.234375 -0.5 -0.53125q-0.203125 -0.3125 -0.34375 -0.703125q-0.125 -0.390625 -0.125 -0.90625q0 -1.125 0.703125 -1.8125q0.703125 -0.703125 1.890625 -0.703125q0.515625 0 0.953125 0.140625q0.453125 0.125 0.75 0.28125l-0.328125 1.1875q-0.3125 -0.171875 -0.625 -0.25q-0.3125 -0.09375 -0.671875 -0.09375q-0.5625 0 -0.890625 0.328125q-0.328125 0.3125 -0.328125 0.921875q0 0.34375 0.125 0.609375q0.125 0.25 0.3125 0.453125q0.203125 0.1875 0.453125 0.359375q0.25 0.171875 0.53125 0.328125q0.328125 0.1875 0.640625 0.421875q0.328125 0.21875 0.578125 0.53125q0.25 0.296875 0.40625 0.703125q0.15625 0.40625 0.15625 0.984375q0 1.1875 -0.703125 1.921875q-0.6875 0.7187538 -2.046875 0.7187538q-0.6875 0 -1.25 -0.1875q-0.546875 -0.1875 -0.828125 -0.3437538l0.3125 -1.234375q0.265625 0.140625 0.703125 0.3125q0.4375 0.171875 0.96875 0.171875zm5.6744995 -3.046875q0.015625 0.65625 0.109375 1.203125q0.109375 0.546875 0.34375 0.953125q0.234375 0.40625 0.625 0.640625q0.390625 0.21875 1.0 0.21875q0.5 0 0.921875 -0.140625q0.4375 -0.15625 0.625 -0.25l0.265625 1.1875q-0.21875 0.15625381 -0.75 0.3281288q-0.53125 0.1875 -1.25 0.1875q-0.953125 0 -1.609375 -0.34375q-0.640625 -0.3437538 -1.046875 -0.9687538q-0.40625 -0.625 -0.59375 -1.484375q-0.171875 -0.875 -0.171875 -1.90625q0 -2.515625 0.828125 -3.671875q0.84375 -1.171875 2.203125 -1.171875q1.546875 0 2.1875 1.171875q0.640625 1.15625 0.640625 3.25q0 0.1875 0 0.390625q0 0.203125 -0.015625 0.40625l-4.3125 0zm1.5 -3.953125q-0.734375 0 -1.078125 0.75q-0.34375 0.75 -0.40625 2.0l2.75 0q0 -1.265625 -0.265625 -2.0q-0.25 -0.75 -1.0 -0.75zm8.961243 0.3125q-0.546875 -0.234375 -1.25 -0.234375q-0.640625 0 -1.1875 0.21875l0 7.765629l-1.484375 0l0 -8.703129q0.5 -0.234375 1.140625 -0.390625q0.65625 -0.171875 1.4375 -0.171875q0.40625 0 0.828125 0.046875q0.421875 0.046875 0.78125 0.1875l-0.265625 1.28125zm4.477783 6.0q0.203125 -0.6875 0.4375 -1.625q0.234375 -0.9375 0.453125 -1.9375q0.234375 -1.0 0.421875 -1.984375q0.203125 -0.984375 0.34375 -1.796875l1.5 0q-0.234375 1.140625 -0.546875 2.40625q-0.296875 1.265625 -0.625 2.484375q-0.3125 1.21875 -0.640625 2.3125q-0.328125 1.09375 -0.609375 1.8906288l-1.53125 0q-0.28125 -0.7968788 -0.609375 -1.8906288q-0.328125 -1.09375 -0.65625 -2.3125q-0.3125 -1.21875 -0.625 -2.484375q-0.296875 -1.265625 -0.515625 -2.40625l1.578125 0q0.125 0.8125 0.328125 1.796875q0.203125 0.984375 0.421875 1.984375q0.21875 1.0 0.4375 1.9375q0.21875 0.9375 0.4375 1.625zm6.2542114 1.7500038l-1.484375 0l0 -9.093754l1.484375 0l0 9.093754zm-0.75 -10.703129q-0.390625 0 -0.6875 -0.265625q-0.28125 -0.28125 -0.28125 -0.734375q0 -0.4375 0.28125 -0.703125q0.296875 -0.28125 0.6875 -0.28125q0.40625 0 0.6875 0.28125q0.28125 0.265625 0.28125 0.703125q0 0.453125 -0.28125 0.734375q-0.28125 0.265625 -0.6875 0.265625zm6.2246094 10.921879q-0.9375 0 -1.5625 -0.359375q-0.625 -0.3593788 -1.015625 -0.9843788q-0.390625 -0.640625 -0.5625 -1.5q-0.15625 -0.875 -0.15625 -1.890625q0 -2.265625 0.828125 -3.53125q0.828125 -1.28125 2.484375 -1.28125q0.5 0 0.890625 0.125q0.40625 0.125 0.75 0.3125l-0.375 1.234375q-0.53125 -0.34375 -1.203125 -0.34375q-0.921875 0 -1.375 0.84375q-0.4375 0.84375 -0.4375 2.640625q0 0.734375 0.078125 1.375q0.09375 0.625 0.3125 1.078125q0.21875 0.453125 0.5625 0.71875q0.359375 0.25 0.921875 0.25q0.375 0 0.671875 -0.09375q0.3125 -0.09375 0.59375 -0.25l0.328125 1.15625q-0.28125 0.18750381 -0.75 0.3437538q-0.453125 0.15625 -0.984375 0.15625zm4.2801514 -4.328129q0.015625 0.65625 0.109375 1.203125q0.109375 0.546875 0.34375 0.953125q0.234375 0.40625 0.625 0.640625q0.390625 0.21875 1.0 0.21875q0.5 0 0.921875 -0.140625q0.4375 -0.15625 0.625 -0.25l0.265625 1.1875q-0.21875 0.15625381 -0.75 0.3281288q-0.53125 0.1875 -1.25 0.1875q-0.953125 0 -1.609375 -0.34375q-0.640625 -0.3437538 -1.046875 -0.9687538q-0.40625 -0.625 -0.59375 -1.484375q-0.171875 -0.875 -0.171875 -1.90625q0 -2.515625 0.828125 -3.671875q0.84375 -1.171875 2.203125 -1.171875q1.546875 0 2.1875 1.171875q0.640625 1.15625 0.640625 3.25q0 0.1875 0 0.390625q0 0.203125 -0.015625 0.40625l-4.3125 0zm1.5 -3.953125q-0.734375 0 -1.078125 0.75q-0.34375 0.75 -0.40625 2.0l2.75 0q0 -1.265625 -0.265625 -2.0q-0.25 -0.75 -1.0 -0.75zm8.418335 -0.78125q0.59375 -0.1875 1.296875 -0.3125q0.71875 -0.125 1.3125 -0.125q0.609375 0 1.09375 0.15625q0.5 0.15625 0.875 0.515625q0.453125 -0.296875 0.96875 -0.484375q0.53125 -0.1875 1.15625 -0.1875q0.625 0 1.125 0.1875q0.515625 0.171875 0.875 0.609375q0.375 0.421875 0.578125 1.171875q0.203125 0.734375 0.203125 1.8125l0 5.500004l-1.484375 0l0 -5.375004q0 -1.34375 -0.3125 -1.96875q-0.3125 -0.625 -1.1875 -0.625q-0.328125 0 -0.671875 0.125q-0.328125 0.109375 -0.625 0.328125q0.140625 0.390625 0.203125 0.90625q0.078125 0.5 0.078125 1.109375l0 5.500004l-1.484375 0l0 -5.375004q0 -1.34375 -0.3125 -1.96875q-0.3125 -0.625 -1.1875 -0.625q-0.453125 0 -1.015625 0.171875l0 7.796879l-1.484375 0l0 -8.843754zm12.219971 -0.0625q0.453125 -0.1875 0.953125 -0.296875q0.515625 -0.125 1.09375 -0.125q1.21875 0 1.96875 0.765625q0.765625 0.75 0.765625 2.34375l0 6.031254q-0.609375 0.171875 -1.265625 0.265625q-0.65625 0.109375 -1.28125 0.109375q-0.609375 0 -1.15625 -0.15625q-0.546875 -0.15625 -0.953125 -0.5000038q-0.40625 -0.34375 -0.65625 -0.875q-0.25 -0.53125 -0.25 -1.296875q0 -0.703125 0.21875 -1.234375q0.21875 -0.53125 0.59375 -0.875q0.390625 -0.359375 0.90625 -0.53125q0.53125 -0.1875 1.125 -0.1875q0.578125 0 1.265625 0.125l0 -0.828125q0 -1.0 -0.390625 -1.390625q-0.390625 -0.40625 -1.109375 -0.40625q-0.40625 0 -0.765625 0.078125q-0.34375 0.078125 -0.75 0.25l-0.3125 -1.265625zm0.71875 6.25q0 0.796875 0.40625 1.1875q0.421875 0.375 1.1875 0.375q0.46875 0 1.015625 -0.125l0 -2.890625q-0.515625 -0.140625 -1.015625 -0.140625q-0.328125 0 -0.625 0.078125q-0.296875 0.078125 -0.515625 0.265625q-0.21875 0.1875 -0.34375 0.484375q-0.109375 0.296875 -0.109375 0.765625zm6.6766357 -6.1875q0.640625 -0.1875 1.375 -0.3125q0.75 -0.125 1.375 -0.125q0.671875 0 1.21875 0.1875q0.5625 0.171875 0.953125 0.609375q0.390625 0.421875 0.609375 1.171875q0.21875 0.734375 0.21875 1.8125l0 5.500004l-1.5 0l0 -5.375004q0 -1.34375 -0.34375 -1.96875q-0.34375 -0.625 -1.296875 -0.625q-0.5 0 -1.125 0.171875l0 7.796879l-1.484375 0l0 -8.843754zm8.477112 -0.0625q0.453125 -0.1875 0.953125 -0.296875q0.515625 -0.125 1.09375 -0.125q1.21875 0 1.96875 0.765625q0.765625 0.75 0.765625 2.34375l0 6.031254q-0.609375 0.171875 -1.265625 0.265625q-0.65625 0.109375 -1.28125 0.109375q-0.609375 0 -1.15625 -0.15625q-0.546875 -0.15625 -0.953125 -0.5000038q-0.40625 -0.34375 -0.65625 -0.875q-0.25 -0.53125 -0.25 -1.296875q0 -0.703125 0.21875 -1.234375q0.21875 -0.53125 0.59375 -0.875q0.390625 -0.359375 0.90625 -0.53125q0.53125 -0.1875 1.125 -0.1875q0.578125 0 1.265625 0.125l0 -0.828125q0 -1.0 -0.390625 -1.390625q-0.390625 -0.40625 -1.109375 -0.40625q-0.40625 0 -0.765625 0.078125q-0.34375 0.078125 -0.75 0.25l-0.3125 -1.265625zm0.71875 6.25q0 0.796875 0.40625 1.1875q0.421875 0.375 1.1875 0.375q0.46875 0 1.015625 -0.125l0 -2.890625q-0.515625 -0.140625 -1.015625 -0.140625q-0.328125 0 -0.625 0.078125q-0.296875 0.078125 -0.515625 0.265625q-0.21875 0.1875 -0.34375 0.484375q-0.109375 0.296875 -0.109375 0.765625zm12.082825 2.390625q0 0.9687538 -0.265625 1.6406288q-0.25 0.671875 -0.6875 1.078125q-0.421875 0.421875 -1.0 0.609375q-0.578125 0.1875 -1.25 0.1875q-0.546875 0 -1.109375 -0.125q-0.546875 -0.109375 -1.015625 -0.359375l0.3125 -1.234375q0.3125 0.171875 0.765625 0.296875q0.453125 0.140625 0.9375 0.140625q0.84375 0 1.328125 -0.484375q0.484375 -0.484375 0.484375 -1.65625l0 -0.4375038q-0.28125 0.125 -0.59375 0.203125q-0.3125 0.078125 -0.703125 0.078125q-1.625 0 -2.390625 -1.109375q-0.75 -1.125 -0.75 -3.171875q0 -1.09375 0.203125 -1.96875q0.203125 -0.875 0.625 -1.484375q0.421875 -0.625 1.09375 -0.9375q0.6875 -0.328125 1.65625 -0.328125q0.640625 0 1.25 0.140625q0.609375 0.125 1.109375 0.328125l0 8.59375zm-1.5 -7.625q-0.234375 -0.0625 -0.46875 -0.078125q-0.21875 -0.03125 -0.40625 -0.03125q-1.046875 0 -1.53125 0.796875q-0.46875 0.796875 -0.46875 2.59375q0 1.625 0.46875 2.296875q0.46875 0.671875 1.328125 0.671875q0.296875 0 0.5625 -0.0625q0.28125 -0.078125 0.515625 -0.203125l0 -5.984375zm5.201599 3.78125q0.015625 0.65625 0.109375 1.203125q0.109375 0.546875 0.34375 0.953125q0.234375 0.40625 0.625 0.640625q0.390625 0.21875 1.0 0.21875q0.5 0 0.921875 -0.140625q0.4375 -0.15625 0.625 -0.25l0.265625 1.1875q-0.21875 0.15625381 -0.75 0.3281288q-0.53125 0.1875 -1.25 0.1875q-0.953125 0 -1.609375 -0.34375q-0.640625 -0.3437538 -1.046875 -0.9687538q-0.40625 -0.625 -0.59375 -1.484375q-0.171875 -0.875 -0.171875 -1.90625q0 -2.515625 0.828125 -3.671875q0.84375 -1.171875 2.203125 -1.171875q1.546875 0 2.1875 1.171875q0.640625 1.15625 0.640625 3.25q0 0.1875 0 0.390625q0 0.203125 -0.015625 0.40625l-4.3125 0zm1.5 -3.953125q-0.734375 0 -1.078125 0.75q-0.34375 0.75 -0.40625 2.0l2.75 0q0 -1.265625 -0.265625 -2.0q-0.25 -0.75 -1.0 -0.75zm8.961243 0.3125q-0.546875 -0.234375 -1.25 -0.234375q-0.640625 0 -1.1875 0.21875l0 7.765629l-1.484375 0l0 -8.703129q0.5 -0.234375 1.140625 -0.390625q0.65625 -0.171875 1.4375 -0.171875q0.40625 0 0.828125 0.046875q0.421875 0.046875 0.78125 0.1875l-0.265625 1.28125zm2.5273438 2.5625q0 -2.21875 -0.53125 -4.171875q-0.53125 -1.953125 -1.5 -3.578125l1.1875 -0.671875q1.078125 1.6875 1.703125 3.828125q0.640625 2.125 0.640625 4.59375q0 2.484375 -0.640625 4.625q-0.625 2.1250038 -1.703125 3.7968788l-1.1875 -0.65625q0.96875 -1.625 1.5 -3.5781288q0.53125 -1.96875 0.53125 -4.1875z" fill-rule="nonzero"/><path fill="#000000" fill-opacity="0.0" d="m16.27559 165.76518l118.99213 0" fill-rule="evenodd"/><path stroke="#000000" stroke-width="1.0" stroke-linejoin="round" stroke-linecap="butt" d="m22.27559 165.76517l112.99213 0" fill-rule="evenodd"/><path fill="#000000" stroke="#000000" stroke-width="1.0" stroke-linecap="butt" d="m22.27559 164.11343l-4.5380974 1.6517334l4.5380974 1.6517334z" fill-rule="evenodd"/><path fill="#000000" fill-opacity="0.0" d="m16.27559 136.58417l112.25197 0l0 29.16536l-112.25197 0z" fill-rule="evenodd"/><path fill="#000000" d="m42.432938 159.85167q-0.78125 0 -1.3125 -0.296875q-0.53125 -0.3125 -0.859375 -0.84375q-0.328125 -0.546875 -0.46875 -1.265625q-0.140625 -0.734375 -0.140625 -1.609375q0 -1.90625 0.6875 -2.984375q0.703125 -1.078125 2.109375 -1.078125q0.421875 0 0.765625 0.109375q0.34375 0.09375 0.625 0.265625l-0.3125 1.03125q-0.453125 -0.28125 -1.015625 -0.28125q-0.796875 0 -1.171875 0.71875q-0.375 0.71875 -0.375 2.21875q0 0.640625 0.078125 1.171875q0.078125 0.53125 0.25 0.921875q0.1875 0.375 0.484375 0.59375q0.3125 0.21875 0.78125 0.21875q0.3125 0 0.5625 -0.078125q0.265625 -0.078125 0.5 -0.21875l0.28125 0.984375q-0.234375 0.15625 -0.625 0.28125q-0.390625 0.140625 -0.84375 0.140625zm7.694092 -4.03125q0 0.90625 -0.15625 1.65625q-0.15625 0.734375 -0.5 1.265625q-0.328125 0.53125 -0.828125 0.828125q-0.5 0.28125 -1.1875 0.28125q-0.6875 0 -1.203125 -0.28125q-0.515625 -0.296875 -0.84375 -0.828125q-0.328125 -0.53125 -0.5 -1.265625q-0.15625 -0.75 -0.15625 -1.65625q0 -0.890625 0.15625 -1.640625q0.171875 -0.75 0.5 -1.28125q0.328125 -0.53125 0.84375 -0.828125q0.515625 -0.296875 1.203125 -0.296875q0.6875 0 1.1875 0.296875q0.5 0.296875 0.828125 0.828125q0.34375 0.53125 0.5 1.28125q0.15625 0.75 0.15625 1.640625zm-1.3125 0q0 -0.640625 -0.078125 -1.171875q-0.078125 -0.546875 -0.234375 -0.921875q-0.15625 -0.390625 -0.421875 -0.59375q-0.265625 -0.21875 -0.625 -0.21875q-0.390625 0 -0.65625 0.21875q-0.25 0.203125 -0.421875 0.59375q-0.15625 0.375 -0.234375 0.921875q-0.078125 0.53125 -0.078125 1.171875q0 0.65625 0.078125 1.1875q0.078125 0.53125 0.234375 0.921875q0.171875 0.375 0.421875 0.59375q0.265625 0.203125 0.65625 0.203125q0.359375 0 0.625 -0.203125q0.265625 -0.21875 0.421875 -0.59375q0.15625 -0.390625 0.234375 -0.921875q0.078125 -0.53125 0.078125 -1.1875zm3.1608734 -3.625q0.546875 -0.171875 1.171875 -0.28125q0.640625 -0.109375 1.15625 -0.109375q0.578125 0 1.046875 0.15625q0.46875 0.15625 0.796875 0.53125q0.328125 0.359375 0.515625 0.984375q0.1875 0.625 0.1875 1.546875l0 4.640625l-1.265625 0l0 -4.546875q0 -1.140625 -0.296875 -1.65625q-0.296875 -0.53125 -1.09375 -0.53125q-0.421875 0 -0.953125 0.140625l0 6.59375l-1.265625 0l0 -7.46875zm8.236221 -0.21875l1.9375 0l0 1.078125l-1.9375 0l0 4.234375q0 0.796875 0.28125 1.109375q0.296875 0.3125 0.78125 0.3125q0.25 0 0.46875 -0.0625q0.234375 -0.078125 0.390625 -0.1875l0.25 1.015625q-0.59375 0.34375 -1.28125 0.34375q-1.078125 0 -1.609375 -0.609375q-0.53125 -0.609375 -0.53125 -2.015625l0 -7.296875l1.25 -0.21875l0 2.296875zm3.6578064 0.15625q0.375 -0.15625 0.796875 -0.25q0.421875 -0.109375 0.921875 -0.109375q1.03125 0 1.671875 0.640625q0.65625 0.640625 0.65625 1.984375l0 5.109375q-0.53125 0.140625 -1.09375 0.21875q-0.546875 0.09375 -1.0625 0.09375q-0.53125 0 -1.0 -0.140625q-0.453125 -0.125 -0.796875 -0.40625q-0.34375 -0.296875 -0.5625 -0.734375q-0.203125 -0.453125 -0.203125 -1.109375q0 -0.59375 0.1875 -1.03125q0.1875 -0.453125 0.5 -0.75q0.328125 -0.3125 0.765625 -0.453125q0.4375 -0.15625 0.953125 -0.15625q0.484375 0 1.078125 0.109375l0 -0.703125q0 -0.84375 -0.328125 -1.171875q-0.328125 -0.34375 -0.953125 -0.34375q-0.328125 0 -0.640625 0.0625q-0.296875 0.0625 -0.625 0.203125l-0.265625 -1.0625zm0.59375 5.28125q0 0.6875 0.34375 1.015625q0.359375 0.3125 1.0 0.3125q0.40625 0 0.875 -0.109375l0 -2.4375q-0.4375 -0.125 -0.875 -0.125q-0.265625 0 -0.515625 0.078125q-0.25 0.0625 -0.4375 0.21875q-0.1875 0.140625 -0.296875 0.40625q-0.09375 0.25 -0.09375 0.640625zm6.907715 2.25l-1.265625 0l0 -7.6875l1.265625 0l0 7.6875zm-0.640625 -9.0625q-0.328125 0 -0.578125 -0.21875q-0.234375 -0.234375 -0.234375 -0.609375q0 -0.390625 0.234375 -0.609375q0.25 -0.234375 0.578125 -0.234375q0.34375 0 0.578125 0.234375q0.25 0.21875 0.25 0.609375q0 0.375 -0.25 0.609375q-0.234375 0.21875 -0.578125 0.21875zm2.9218292 1.59375q0.546875 -0.171875 1.171875 -0.28125q0.640625 -0.109375 1.15625 -0.109375q0.578125 0 1.046875 0.15625q0.46875 0.15625 0.796875 0.53125q0.328125 0.359375 0.515625 0.984375q0.1875 0.625 0.1875 1.546875l0 4.640625l-1.265625 0l0 -4.546875q0 -1.140625 -0.296875 -1.65625q-0.296875 -0.53125 -1.09375 -0.53125q-0.421875 0 -0.953125 0.140625l0 6.59375l-1.265625 0l0 -7.46875zm7.9393463 4.0q0 0.546875 0.09375 1.015625q0.09375 0.453125 0.28125 0.8125q0.203125 0.34375 0.53125 0.53125q0.328125 0.1875 0.84375 0.1875q0.421875 0 0.78125 -0.125q0.359375 -0.125 0.53125 -0.21875l0.234375 1.015625q-0.203125 0.125 -0.65625 0.28125q-0.4375 0.15625 -1.046875 0.15625q-0.8125 0 -1.359375 -0.28125q-0.546875 -0.296875 -0.890625 -0.828125q-0.34375 -0.53125 -0.5 -1.265625q-0.140625 -0.734375 -0.140625 -1.609375q0 -2.125 0.703125 -3.109375q0.703125 -0.984375 1.859375 -0.984375q1.3125 0 1.84375 0.984375q0.546875 0.984375 0.546875 2.765625q0 0.15625 0 0.328125q0 0.15625 -0.015625 0.34375l-3.640625 0zm1.265625 -3.34375q-0.625 0 -0.921875 0.625q-0.28125 0.625 -0.34375 1.6875l2.34375 0q0 -1.0625 -0.234375 -1.6875q-0.21875 -0.625 -0.84375 -0.625zm7.577652 0.265625q-0.46875 -0.203125 -1.046875 -0.203125q-0.546875 0 -1.015625 0.1875l0 6.5625l-1.265625 0l0 -7.359375q0.421875 -0.203125 0.96875 -0.34375q0.5625 -0.140625 1.21875 -0.140625q0.34375 0 0.6875 0.046875q0.359375 0.046875 0.671875 0.15625l-0.21875 1.09375zm4.4308777 -3.609375l1.3125 0l0 10.15625l-1.3125 0l0 -10.15625zm10.187576 5.078125q0 1.40625 -0.3125 2.40625q-0.296875 0.984375 -0.859375 1.609375q-0.5625 0.609375 -1.359375 0.890625q-0.796875 0.28125 -1.78125 0.28125q-1.0 0 -2.109375 -0.265625l0 -9.859375q0.546875 -0.109375 1.078125 -0.1875q0.53125 -0.078125 1.015625 -0.078125q1.0 0 1.796875 0.28125q0.796875 0.28125 1.359375 0.90625q0.5625 0.609375 0.859375 1.609375q0.3125 0.984375 0.3125 2.40625zm-1.40625 0q0 -1.09375 -0.171875 -1.84375q-0.15625 -0.765625 -0.5 -1.25q-0.328125 -0.484375 -0.875 -0.703125q-0.546875 -0.234375 -1.3125 -0.234375q-0.203125 0 -0.421875 0.015625q-0.203125 0.015625 -0.421875 0.046875l0 7.921875q0.21875 0.03125 0.421875 0.046875q0.21875 0.015625 0.40625 0.015625q0.78125 0 1.3125 -0.21875q0.546875 -0.234375 0.890625 -0.703125q0.34375 -0.484375 0.5 -1.234375q0.171875 -0.765625 0.171875 -1.859375z" fill-rule="nonzero"/><path fill="#000000" fill-opacity="0.0" d="m524.70605 77.43835l0 304.15747" fill-rule="evenodd"/><path stroke="#000000" stroke-width="1.0" stroke-linejoin="round" stroke-linecap="butt" stroke-dasharray="4.0,3.0" d="m524.70605 77.43835l0 304.15747" fill-rule="evenodd"/><path fill="#cfe2f3" d="m516.0289 152.11551l17.35431 0l0 173.48032l-17.35431 0z" fill-rule="evenodd"/><path stroke="#000000" stroke-width="1.0" stroke-linejoin="round" stroke-linecap="butt" d="m516.0289 152.11551l17.35431 0l0 173.48032l-17.35431 0z" fill-rule="evenodd"/><path fill="#000000" fill-opacity="0.0" d="m342.79053 164.20222l171.93701 -0.1574707" fill-rule="evenodd"/><path stroke="#000000" stroke-width="1.0" stroke-linejoin="round" stroke-linecap="butt" d="m342.79053 164.20222l165.93701 -0.1519928" fill-rule="evenodd"/><path fill="#000000" stroke="#000000" stroke-width="1.0" stroke-linecap="butt" d="m508.72903 165.70197l4.5365906 -1.6558838l-4.539612 -1.6475677z" fill-rule="evenodd"/><path fill="#000000" fill-opacity="0.0" d="m345.71155 134.757l166.89764 0l0 17.354324l-166.89764 0z" fill-rule="evenodd"/><path fill="#000000" d="m393.63184 150.64445q-0.46875 -0.203125 -1.046875 -0.203125q-0.546875 0 -1.015625 0.1875l0 6.5625l-1.265625 0l0 -7.359375q0.421875 -0.203125 0.96875 -0.34375q0.5625 -0.140625 1.21875 -0.140625q0.34375 0 0.6875 0.046875q0.359375 0.046875 0.671875 0.15625l-0.21875 1.09375zm6.2447815 6.328125q-0.1875 0.078125 -0.46875 0.140625q-0.265625 0.0625 -0.5625 0.109375q-0.296875 0.0625 -0.609375 0.09375q-0.296875 0.03125 -0.546875 0.03125q-0.59375 0 -1.09375 -0.140625q-0.5 -0.140625 -0.859375 -0.484375q-0.34375 -0.359375 -0.53125 -0.953125q-0.1875 -0.609375 -0.1875 -1.53125l0 -4.734375l1.25 0l0 4.6875q0 1.125 0.34375 1.59375q0.34375 0.453125 1.046875 0.453125q0.234375 0 0.46875 -0.015625q0.234375 -0.03125 0.484375 -0.09375l0 -6.625l1.265625 0l0 7.46875zm2.2694092 -7.25q0.546875 -0.171875 1.171875 -0.28125q0.640625 -0.109375 1.15625 -0.109375q0.578125 0 1.046875 0.15625q0.46875 0.15625 0.796875 0.53125q0.328125 0.359375 0.515625 0.984375q0.1875 0.625 0.1875 1.546875l0 4.640625l-1.265625 0l0 -4.546875q0 -1.140625 -0.296875 -1.65625q-0.296875 -0.53125 -1.09375 -0.53125q-0.421875 0 -0.953125 0.140625l0 6.59375l-1.265625 0l0 -7.46875zm10.797333 4.0q0 0.546875 0.09375 1.015625q0.09375 0.453125 0.28125 0.8125q0.203125 0.34375 0.53125 0.53125q0.328125 0.1875 0.84375 0.1875q0.421875 0 0.78125 -0.125q0.359375 -0.125 0.53125 -0.21875l0.234375 1.015625q-0.203125 0.125 -0.65625 0.28125q-0.4375 0.15625 -1.046875 0.15625q-0.8125 0 -1.359375 -0.28125q-0.546875 -0.296875 -0.890625 -0.828125q-0.34375 -0.53125 -0.5 -1.265625q-0.140625 -0.734375 -0.140625 -1.609375q0 -2.125 0.703125 -3.109375q0.703125 -0.984375 1.859375 -0.984375q1.3125 0 1.84375 0.984375q0.546875 0.984375 0.546875 2.765625q0 0.15625 0 0.328125q0 0.15625 -0.015625 0.34375l-3.640625 0zm1.265625 -3.34375q-0.625 0 -0.921875 0.625q-0.28125 0.625 -0.34375 1.6875l2.34375 0q0 -1.0625 -0.234375 -1.6875q-0.21875 -0.625 -0.84375 -0.625zm4.2495117 -0.65625q0.546875 -0.171875 1.171875 -0.28125q0.640625 -0.109375 1.15625 -0.109375q0.578125 0 1.046875 0.15625q0.46875 0.15625 0.796875 0.53125q0.328125 0.359375 0.515625 0.984375q0.1875 0.625 0.1875 1.546875l0 4.640625l-1.265625 0l0 -4.546875q0 -1.140625 -0.296875 -1.65625q-0.296875 -0.53125 -1.09375 -0.53125q-0.421875 0 -0.953125 0.140625l0 6.59375l-1.265625 0l0 -7.46875zm8.236237 -0.21875l1.9375 0l0 1.078125l-1.9375 0l0 4.234375q0 0.796875 0.28125 1.109375q0.296875 0.3125 0.78125 0.3125q0.25 0 0.46875 -0.0625q0.234375 -0.078125 0.390625 -0.1875l0.25 1.015625q-0.59375 0.34375 -1.28125 0.34375q-1.078125 0 -1.609375 -0.609375q-0.53125 -0.609375 -0.53125 -2.015625l0 -7.296875l1.25 -0.21875l0 2.296875zm6.8609314 1.140625q-0.46875 -0.203125 -1.046875 -0.203125q-0.546875 0 -1.015625 0.1875l0 6.5625l-1.265625 0l0 -7.359375q0.421875 -0.203125 0.96875 -0.34375q0.5625 -0.140625 1.21875 -0.140625q0.34375 0 0.6875 0.046875q0.359375 0.046875 0.671875 0.15625l-0.21875 1.09375zm3.7737122 4.953125q0.421875 -1.46875 0.765625 -2.953125q0.359375 -1.484375 0.6875 -3.140625l1.234375 0q-0.21875 1.0625 -0.484375 2.109375q-0.25 1.03125 -0.515625 2.0q-0.265625 0.96875 -0.546875 1.828125q-0.265625 0.859375 -0.5 1.5625q-0.28125 0.8125 -0.546875 1.375q-0.25 0.578125 -0.546875 0.921875q-0.296875 0.34375 -0.65625 0.484375q-0.34375 0.15625 -0.828125 0.15625q-0.265625 0 -0.53125 -0.0625q-0.265625 -0.0625 -0.4375 -0.140625l0.234375 -1.015625q0.375 0.15625 0.71875 0.15625q0.421875 0 0.6875 -0.3125q0.265625 -0.3125 0.515625 -0.921875l0.140625 -0.359375q-0.28125 -0.765625 -0.5625 -1.6875q-0.28125 -0.9375 -0.5625 -1.953125q-0.265625 -1.015625 -0.515625 -2.078125q-0.25 -1.0625 -0.453125 -2.0625l1.328125 0q0.125 0.6875 0.28125 1.515625q0.171875 0.8125 0.34375 1.640625q0.1875 0.8125 0.375 1.578125q0.1875 0.765625 0.375 1.359375zm5.272644 0.4375q0.421875 0.234375 0.90625 0.234375q0.375 0 0.640625 -0.140625q0.28125 -0.15625 0.46875 -0.484375q0.203125 -0.34375 0.3125 -0.890625q0.109375 -0.5625 0.109375 -1.390625q0 -1.578125 -0.40625 -2.25q-0.40625 -0.6875 -1.28125 -0.6875q-0.171875 0 -0.359375 0.015625q-0.1875 0.015625 -0.390625 0.078125l0 5.515625zm0 3.875l-1.265625 0l0 -10.203125q0.40625 -0.1875 0.921875 -0.296875q0.53125 -0.109375 1.078125 -0.109375q0.796875 0 1.375 0.28125q0.578125 0.28125 0.9375 0.8125q0.359375 0.515625 0.53125 1.265625q0.171875 0.75 0.171875 1.71875q0 1.953125 -0.625 2.984375q-0.625 1.015625 -2.03125 1.015625q-0.328125 0 -0.59375 -0.0625q-0.265625 -0.0625 -0.5 -0.1875l0 2.78125zm10.532013 -6.5625q0 0.90625 -0.15625 1.65625q-0.15625 0.734375 -0.5 1.265625q-0.328125 0.53125 -0.828125 0.828125q-0.5 0.28125 -1.1875 0.28125q-0.6875 0 -1.203125 -0.28125q-0.515625 -0.296875 -0.84375 -0.828125q-0.328125 -0.53125 -0.5 -1.265625q-0.15625 -0.75 -0.15625 -1.65625q0 -0.890625 0.15625 -1.640625q0.171875 -0.75 0.5 -1.28125q0.328125 -0.53125 0.84375 -0.828125q0.515625 -0.296875 1.203125 -0.296875q0.6875 0 1.1875 0.296875q0.5 0.296875 0.828125 0.828125q0.34375 0.53125 0.5 1.28125q0.15625 0.75 0.15625 1.640625zm-1.3125 0q0 -0.640625 -0.078125 -1.171875q-0.078125 -0.546875 -0.234375 -0.921875q-0.15625 -0.390625 -0.421875 -0.59375q-0.265625 -0.21875 -0.625 -0.21875q-0.390625 0 -0.65625 0.21875q-0.25 0.203125 -0.421875 0.59375q-0.15625 0.375 -0.234375 0.921875q-0.078125 0.53125 -0.078125 1.171875q0 0.65625 0.078125 1.1875q0.078125 0.53125 0.234375 0.921875q0.171875 0.375 0.421875 0.59375q0.265625 0.203125 0.65625 0.203125q0.359375 0 0.625 -0.203125q0.265625 -0.21875 0.421875 -0.59375q0.15625 -0.390625 0.234375 -0.921875q0.078125 -0.53125 0.078125 -1.1875zm4.426483 3.84375l-1.265625 0l0 -7.6875l1.265625 0l0 7.6875zm-0.640625 -9.0625q-0.328125 0 -0.578125 -0.21875q-0.234375 -0.234375 -0.234375 -0.609375q0 -0.390625 0.234375 -0.609375q0.25 -0.234375 0.578125 -0.234375q0.34375 0 0.578125 0.234375q0.25 0.21875 0.25 0.609375q0 0.375 -0.25 0.609375q-0.234375 0.21875 -0.578125 0.21875zm2.9218445 1.59375q0.546875 -0.171875 1.171875 -0.28125q0.640625 -0.109375 1.15625 -0.109375q0.578125 0 1.046875 0.15625q0.46875 0.15625 0.796875 0.53125q0.328125 0.359375 0.515625 0.984375q0.1875 0.625 0.1875 1.546875l0 4.640625l-1.265625 0l0 -4.546875q0 -1.140625 -0.296875 -1.65625q-0.296875 -0.53125 -1.09375 -0.53125q-0.421875 0 -0.953125 0.140625l0 6.59375l-1.265625 0l0 -7.46875zm8.236206 -0.21875l1.9375 0l0 1.078125l-1.9375 0l0 4.234375q0 0.796875 0.28125 1.109375q0.296875 0.3125 0.78125 0.3125q0.25 0 0.46875 -0.0625q0.234375 -0.078125 0.390625 -0.1875l0.25 1.015625q-0.59375 0.34375 -1.28125 0.34375q-1.078125 0 -1.609375 -0.609375q-0.53125 -0.609375 -0.53125 -2.015625l0 -7.296875l1.25 -0.21875l0 2.296875z" fill-rule="nonzero"/><path fill="#000000" fill-opacity="0.0" d="m715.8088 77.5504l0 304.15747" fill-rule="evenodd"/><path stroke="#000000" stroke-width="1.0" stroke-linejoin="round" stroke-linecap="butt" stroke-dasharray="4.0,3.0" d="m715.8088 77.5504l0 304.15747" fill-rule="evenodd"/><path fill="#ffffff" d="m707.1286 291.66928l17.35431 0l0 90.04724l-17.35431 0z" fill-rule="evenodd"/><path stroke="#000000" stroke-width="1.0" stroke-linejoin="round" stroke-linecap="butt" d="m707.1286 291.66928l17.35431 0l0 90.04724l-17.35431 0z" fill-rule="evenodd"/><path fill="#000000" fill-opacity="0.0" d="m533.8911 307.5277l171.93701 -0.1574707" fill-rule="evenodd"/><path stroke="#000000" stroke-width="1.0" stroke-linejoin="round" stroke-linecap="butt" d="m533.89105 307.5277l165.93701 -0.15197754" fill-rule="evenodd"/><path fill="#000000" stroke="#000000" stroke-width="1.0" stroke-linecap="butt" d="m699.8296 309.02747l4.536621 -1.6558838l-4.539612 -1.647583z" fill-rule="evenodd"/><path fill="#000000" fill-opacity="0.0" d="m536.8121 273.60742l166.89764 0l0 17.35434l-166.89764 0z" fill-rule="evenodd"/><path fill="#000000" d="m590.29047 294.8855q0.421875 0.234375 0.90625 0.234375q0.375 0 0.640625 -0.140625q0.28125 -0.15625 0.46875 -0.484375q0.203125 -0.34375 0.3125 -0.890625q0.109375 -0.5625 0.109375 -1.390625q0 -1.578125 -0.40625 -2.25q-0.40625 -0.6875 -1.28125 -0.6875q-0.171875 0 -0.359375 0.015625q-0.1875 0.015625 -0.390625 0.078125l0 5.515625zm0 3.875l-1.265625 0l0 -10.203125q0.40625 -0.1875 0.921875 -0.296875q0.53125 -0.109375 1.078125 -0.109375q0.796875 0 1.375 0.28125q0.578125 0.28125 0.9375 0.8125q0.359375 0.515625 0.53125 1.265625q0.171875 0.75 0.171875 1.71875q0 1.953125 -0.625 2.984375q-0.625 1.015625 -2.03125 1.015625q-0.328125 0 -0.59375 -0.0625q-0.265625 -0.0625 -0.5 -0.1875l0 2.78125zm5.7195435 -10.25q0.375 -0.15625 0.796875 -0.25q0.421875 -0.109375 0.921875 -0.109375q1.03125 0 1.671875 0.640625q0.65625 0.640625 0.65625 1.984375l0 5.109375q-0.53125 0.140625 -1.09375 0.21875q-0.546875 0.09375 -1.0625 0.09375q-0.53125 0 -1.0 -0.140625q-0.453125 -0.125 -0.796875 -0.40625q-0.34375 -0.296875 -0.5625 -0.734375q-0.203125 -0.453125 -0.203125 -1.109375q0 -0.59375 0.1875 -1.03125q0.1875 -0.453125 0.5 -0.75q0.328125 -0.3125 0.765625 -0.453125q0.4375 -0.15625 0.953125 -0.15625q0.484375 0 1.078125 0.109375l0 -0.703125q0 -0.84375 -0.328125 -1.171875q-0.328125 -0.34375 -0.953125 -0.34375q-0.328125 0 -0.640625 0.0625q-0.296875 0.0625 -0.625 0.203125l-0.265625 -1.0625zm0.59375 5.28125q0 0.6875 0.34375 1.015625q0.359375 0.3125 1.0 0.3125q0.40625 0 0.875 -0.109375l0 -2.4375q-0.4375 -0.125 -0.875 -0.125q-0.265625 0 -0.515625 0.078125q-0.25 0.0625 -0.4375 0.21875q-0.1875 0.140625 -0.296875 0.40625q-0.09375 0.25 -0.09375 0.640625zm6.720215 1.359375q0.546875 0 0.828125 -0.3125q0.296875 -0.328125 0.296875 -0.828125q0 -0.328125 -0.125 -0.546875q-0.109375 -0.234375 -0.3125 -0.40625q-0.1875 -0.1875 -0.4375 -0.3125q-0.234375 -0.140625 -0.484375 -0.3125q-0.25 -0.140625 -0.484375 -0.328125q-0.234375 -0.203125 -0.421875 -0.453125q-0.1875 -0.265625 -0.296875 -0.59375q-0.109375 -0.328125 -0.109375 -0.78125q0 -0.953125 0.59375 -1.53125q0.59375 -0.59375 1.609375 -0.59375q0.421875 0 0.796875 0.109375q0.390625 0.109375 0.640625 0.25l-0.28125 1.015625q-0.265625 -0.15625 -0.53125 -0.21875q-0.265625 -0.078125 -0.5625 -0.078125q-0.46875 0 -0.75 0.28125q-0.28125 0.265625 -0.28125 0.765625q0 0.296875 0.09375 0.515625q0.109375 0.203125 0.28125 0.375q0.171875 0.171875 0.375 0.328125q0.21875 0.140625 0.453125 0.265625q0.28125 0.15625 0.546875 0.359375q0.265625 0.1875 0.484375 0.453125q0.21875 0.25 0.34375 0.59375q0.125 0.34375 0.125 0.828125q0 1.0 -0.59375 1.625q-0.59375 0.609375 -1.734375 0.609375q-0.578125 0 -1.046875 -0.15625q-0.46875 -0.15625 -0.703125 -0.296875l0.265625 -1.03125q0.21875 0.109375 0.59375 0.265625q0.375 0.140625 0.828125 0.140625zm4.9978027 0q0.546875 0 0.828125 -0.3125q0.296875 -0.328125 0.296875 -0.828125q0 -0.328125 -0.125 -0.546875q-0.109375 -0.234375 -0.3125 -0.40625q-0.1875 -0.1875 -0.4375 -0.3125q-0.234375 -0.140625 -0.484375 -0.3125q-0.25 -0.140625 -0.484375 -0.328125q-0.234375 -0.203125 -0.421875 -0.453125q-0.1875 -0.265625 -0.296875 -0.59375q-0.109375 -0.328125 -0.109375 -0.78125q0 -0.953125 0.59375 -1.53125q0.59375 -0.59375 1.609375 -0.59375q0.421875 0 0.796875 0.109375q0.390625 0.109375 0.640625 0.25l-0.28125 1.015625q-0.265625 -0.15625 -0.53125 -0.21875q-0.265625 -0.078125 -0.5625 -0.078125q-0.46875 0 -0.75 0.28125q-0.28125 0.265625 -0.28125 0.765625q0 0.296875 0.09375 0.515625q0.109375 0.203125 0.28125 0.375q0.171875 0.171875 0.375 0.328125q0.21875 0.140625 0.453125 0.265625q0.28125 0.15625 0.546875 0.359375q0.265625 0.1875 0.484375 0.453125q0.21875 0.25 0.34375 0.59375q0.125 0.34375 0.125 0.828125q0 1.0 -0.59375 1.625q-0.59375 0.609375 -1.734375 0.609375q-0.578125 0 -1.046875 -0.15625q-0.46875 -0.15625 -0.703125 -0.296875l0.265625 -1.03125q0.21875 0.109375 0.59375 0.265625q0.375 0.140625 0.828125 0.140625zm9.121399 1.078125q-0.78125 0 -1.3125 -0.296875q-0.53125 -0.3125 -0.859375 -0.84375q-0.328125 -0.546875 -0.46875 -1.265625q-0.140625 -0.734375 -0.140625 -1.609375q0 -1.90625 0.6875 -2.984375q0.703125 -1.078125 2.109375 -1.078125q0.421875 0 0.765625 0.109375q0.34375 0.09375 0.625 0.265625l-0.3125 1.03125q-0.453125 -0.28125 -1.015625 -0.28125q-0.796875 0 -1.171875 0.71875q-0.375 0.71875 -0.375 2.21875q0 0.640625 0.078125 1.171875q0.078125 0.53125 0.25 0.921875q0.1875 0.375 0.484375 0.59375q0.3125 0.21875 0.78125 0.21875q0.3125 0 0.5625 -0.078125q0.265625 -0.078125 0.5 -0.21875l0.28125 0.984375q-0.234375 0.15625 -0.625 0.28125q-0.390625 0.140625 -0.84375 0.140625zm7.694092 -4.03125q0 0.90625 -0.15625 1.65625q-0.15625 0.734375 -0.5 1.265625q-0.328125 0.53125 -0.828125 0.828125q-0.5 0.28125 -1.1875 0.28125q-0.6875 0 -1.203125 -0.28125q-0.515625 -0.296875 -0.84375 -0.828125q-0.328125 -0.53125 -0.5 -1.265625q-0.15625 -0.75 -0.15625 -1.65625q0 -0.890625 0.15625 -1.640625q0.171875 -0.75 0.5 -1.28125q0.328125 -0.53125 0.84375 -0.828125q0.515625 -0.296875 1.203125 -0.296875q0.6875 0 1.1875 0.296875q0.5 0.296875 0.828125 0.828125q0.34375 0.53125 0.5 1.28125q0.15625 0.75 0.15625 1.640625zm-1.3125 0q0 -0.640625 -0.078125 -1.171875q-0.078125 -0.546875 -0.234375 -0.921875q-0.15625 -0.390625 -0.421875 -0.59375q-0.265625 -0.21875 -0.625 -0.21875q-0.390625 0 -0.65625 0.21875q-0.25 0.203125 -0.421875 0.59375q-0.15625 0.375 -0.234375 0.921875q-0.078125 0.53125 -0.078125 1.171875q0 0.65625 0.078125 1.1875q0.078125 0.53125 0.234375 0.921875q0.171875 0.375 0.421875 0.59375q0.265625 0.203125 0.65625 0.203125q0.359375 0 0.625 -0.203125q0.265625 -0.21875 0.421875 -0.59375q0.15625 -0.390625 0.234375 -0.921875q0.078125 -0.53125 0.078125 -1.1875zm3.1608887 -3.625q0.546875 -0.171875 1.171875 -0.28125q0.640625 -0.109375 1.15625 -0.109375q0.578125 0 1.046875 0.15625q0.46875 0.15625 0.796875 0.53125q0.328125 0.359375 0.515625 0.984375q0.1875 0.625 0.1875 1.546875l0 4.640625l-1.265625 0l0 -4.546875q0 -1.140625 -0.296875 -1.65625q-0.296875 -0.53125 -1.09375 -0.53125q-0.421875 0 -0.953125 0.140625l0 6.59375l-1.265625 0l0 -7.46875zm8.236206 -0.21875l1.9375 0l0 1.078125l-1.9375 0l0 4.234375q0 0.796875 0.28125 1.109375q0.296875 0.3125 0.78125 0.3125q0.25 0 0.46875 -0.0625q0.234375 -0.078125 0.390625 -0.1875l0.25 1.015625q-0.59375 0.34375 -1.28125 0.34375q-1.078125 0 -1.609375 -0.609375q-0.53125 -0.609375 -0.53125 -2.015625l0 -7.296875l1.25 -0.21875l0 2.296875zm6.860901 1.140625q-0.46875 -0.203125 -1.046875 -0.203125q-0.546875 0 -1.015625 0.1875l0 6.5625l-1.265625 0l0 -7.359375q0.421875 -0.203125 0.96875 -0.34375q0.5625 -0.140625 1.21875 -0.140625q0.34375 0 0.6875 0.046875q0.359375 0.046875 0.671875 0.15625l-0.21875 1.09375zm6.2700195 2.703125q0 0.90625 -0.15625 1.65625q-0.15625 0.734375 -0.5 1.265625q-0.328125 0.53125 -0.828125 0.828125q-0.5 0.28125 -1.1875 0.28125q-0.6875 0 -1.203125 -0.28125q-0.515625 -0.296875 -0.84375 -0.828125q-0.328125 -0.53125 -0.5 -1.265625q-0.15625 -0.75 -0.15625 -1.65625q0 -0.890625 0.15625 -1.640625q0.171875 -0.75 0.5 -1.28125q0.328125 -0.53125 0.84375 -0.828125q0.515625 -0.296875 1.203125 -0.296875q0.6875 0 1.1875 0.296875q0.5 0.296875 0.828125 0.828125q0.34375 0.53125 0.5 1.28125q0.15625 0.75 0.15625 1.640625zm-1.3125 0q0 -0.640625 -0.078125 -1.171875q-0.078125 -0.546875 -0.234375 -0.921875q-0.15625 -0.390625 -0.421875 -0.59375q-0.265625 -0.21875 -0.625 -0.21875q-0.390625 0 -0.65625 0.21875q-0.25 0.203125 -0.421875 0.59375q-0.15625 0.375 -0.234375 0.921875q-0.078125 0.53125 -0.078125 1.171875q0 0.65625 0.078125 1.1875q0.078125 0.53125 0.234375 0.921875q0.171875 0.375 0.421875 0.59375q0.265625 0.203125 0.65625 0.203125q0.359375 0 0.625 -0.203125q0.265625 -0.21875 0.421875 -0.59375q0.15625 -0.390625 0.234375 -0.921875q0.078125 -0.53125 0.078125 -1.1875zm5.1608276 3.984375q-1.09375 -0.015625 -1.5625 -0.515625q-0.46875 -0.515625 -0.46875 -1.625l0 -9.15625l1.265625 -0.21875l0 9.40625q0 0.515625 0.203125 0.75q0.203125 0.21875 0.71875 0.3125l-0.15625 1.046875z" fill-rule="nonzero"/><path fill="#000000" fill-opacity="0.0" d="m534.24713 177.66866l53.95276 0.85040283" fill-rule="evenodd"/><path stroke="#000000" stroke-width="1.0" stroke-linejoin="round" stroke-linecap="butt" d="m534.24713 177.66866l53.95276 0.85040283" fill-rule="evenodd"/><path fill="#000000" fill-opacity="0.0" d="m588.2024 178.53746l0 58.29921" fill-rule="evenodd"/><path stroke="#000000" stroke-width="1.0" stroke-linejoin="round" stroke-linecap="butt" d="m588.2024 178.53746l0 58.29921" fill-rule="evenodd"/><path fill="#000000" fill-opacity="0.0" d="m534.24713 236.85469l53.95276 0.8503876" fill-rule="evenodd"/><path stroke="#000000" stroke-width="1.0" stroke-linejoin="round" stroke-linecap="butt" d="m540.2464 236.94925l47.95349 0.7558441" fill-rule="evenodd"/><path fill="#000000" stroke="#000000" stroke-width="1.0" stroke-linecap="butt" d="m540.2724 235.29773l-4.5635376 1.5800171l4.5114746 1.7230377z" fill-rule="evenodd"/><path fill="#000000" fill-opacity="0.0" d="m583.8494 182.76952l166.89764 0l0 49.85826l-166.89764 0z" fill-rule="evenodd"/><path fill="#000000" d="m595.24005 204.69327q0.421875 0.234375 0.90625 0.234375q0.375 0 0.640625 -0.140625q0.28125 -0.15625 0.46875 -0.484375q0.203125 -0.34375 0.3125 -0.890625q0.109375 -0.5625 0.109375 -1.390625q0 -1.578125 -0.40625 -2.25q-0.40625 -0.6875 -1.28125 -0.6875q-0.171875 0 -0.359375 0.015625q-0.1875 0.015625 -0.390625 0.078125l0 5.515625zm0 3.875l-1.265625 0l0 -10.203125q0.40625 -0.1875 0.921875 -0.296875q0.53125 -0.109375 1.078125 -0.109375q0.796875 0 1.375 0.28125q0.578125 0.28125 0.9375 0.8125q0.359375 0.515625 0.53125 1.265625q0.171875 0.75 0.171875 1.71875q0 1.953125 -0.625 2.984375q-0.625 1.015625 -2.03125 1.015625q-0.328125 0 -0.59375 -0.0625q-0.265625 -0.0625 -0.5 -0.1875l0 2.78125zm8.922607 -9.265625q-0.46875 -0.203125 -1.046875 -0.203125q-0.546875 0 -1.015625 0.1875l0 6.5625l-1.265625 0l0 -7.359375q0.421875 -0.203125 0.96875 -0.34375q0.5625 -0.140625 1.21875 -0.140625q0.34375 0 0.6875 0.046875q0.359375 0.046875 0.671875 0.15625l-0.21875 1.09375zm2.2075195 3.078125q0 0.546875 0.09375 1.015625q0.09375 0.453125 0.28125 0.8125q0.203125 0.34375 0.53125 0.53125q0.328125 0.1875 0.84375 0.1875q0.421875 0 0.78125 -0.125q0.359375 -0.125 0.53125 -0.21875l0.234375 1.015625q-0.203125 0.125 -0.65625 0.28125q-0.4375 0.15625 -1.046875 0.15625q-0.8125 0 -1.359375 -0.28125q-0.546875 -0.296875 -0.890625 -0.828125q-0.34375 -0.53125 -0.5 -1.265625q-0.140625 -0.734375 -0.140625 -1.609375q0 -2.125 0.703125 -3.109375q0.703125 -0.984375 1.859375 -0.984375q1.3125 0 1.84375 0.984375q0.546875 0.984375 0.546875 2.765625q0 0.15625 0 0.328125q0 0.15625 -0.015625 0.34375l-3.640625 0zm1.265625 -3.34375q-0.625 0 -0.921875 0.625q-0.28125 0.625 -0.34375 1.6875l2.34375 0q0 -1.0625 -0.234375 -1.6875q-0.21875 -0.625 -0.84375 -0.625zm5.4995117 5.65625q0.421875 0.234375 0.90625 0.234375q0.375 0 0.640625 -0.140625q0.28125 -0.15625 0.46875 -0.484375q0.203125 -0.34375 0.3125 -0.890625q0.109375 -0.5625 0.109375 -1.390625q0 -1.578125 -0.40625 -2.25q-0.40625 -0.6875 -1.28125 -0.6875q-0.171875 0 -0.359375 0.015625q-0.1875 0.015625 -0.390625 0.078125l0 5.515625zm0 3.875l-1.265625 0l0 -10.203125q0.40625 -0.1875 0.921875 -0.296875q0.53125 -0.109375 1.078125 -0.109375q0.796875 0 1.375 0.28125q0.578125 0.28125 0.9375 0.8125q0.359375 0.515625 0.53125 1.265625q0.171875 0.75 0.171875 1.71875q0 1.953125 -0.625 2.984375q-0.625 1.015625 -2.03125 1.015625q-0.328125 0 -0.59375 -0.0625q-0.265625 -0.0625 -0.5 -0.1875l0 2.78125zm5.7194824 -10.25q0.375 -0.15625 0.796875 -0.25q0.421875 -0.109375 0.921875 -0.109375q1.03125 0 1.671875 0.640625q0.65625 0.640625 0.65625 1.984375l0 5.109375q-0.53125 0.140625 -1.09375 0.21875q-0.546875 0.09375 -1.0625 0.09375q-0.53125 0 -1.0 -0.140625q-0.453125 -0.125 -0.796875 -0.40625q-0.34375 -0.296875 -0.5625 -0.734375q-0.203125 -0.453125 -0.203125 -1.109375q0 -0.59375 0.1875 -1.03125q0.1875 -0.453125 0.5 -0.75q0.328125 -0.3125 0.765625 -0.453125q0.4375 -0.15625 0.953125 -0.15625q0.484375 0 1.078125 0.109375l0 -0.703125q0 -0.84375 -0.328125 -1.171875q-0.328125 -0.34375 -0.953125 -0.34375q-0.328125 0 -0.640625 0.0625q-0.296875 0.0625 -0.625 0.203125l-0.265625 -1.0625zm0.59375 5.28125q0 0.6875 0.34375 1.015625q0.359375 0.3125 1.0 0.3125q0.40625 0 0.875 -0.109375l0 -2.4375q-0.4375 -0.125 -0.875 -0.125q-0.265625 0 -0.515625 0.078125q-0.25 0.0625 -0.4375 0.21875q-0.1875 0.140625 -0.296875 0.40625q-0.09375 0.25 -0.09375 0.640625zm8.970215 -4.296875q-0.46875 -0.203125 -1.046875 -0.203125q-0.546875 0 -1.015625 0.1875l0 6.5625l-1.265625 0l0 -7.359375q0.421875 -0.203125 0.96875 -0.34375q0.5625 -0.140625 1.21875 -0.140625q0.34375 0 0.6875 0.046875q0.359375 0.046875 0.671875 0.15625l-0.21875 1.09375zm2.2074585 3.078125q0 0.546875 0.09375 1.015625q0.09375 0.453125 0.28125 0.8125q0.203125 0.34375 0.53125 0.53125q0.328125 0.1875 0.84375 0.1875q0.421875 0 0.78125 -0.125q0.359375 -0.125 0.53125 -0.21875l0.234375 1.015625q-0.203125 0.125 -0.65625 0.28125q-0.4375 0.15625 -1.046875 0.15625q-0.8125 0 -1.359375 -0.28125q-0.546875 -0.296875 -0.890625 -0.828125q-0.34375 -0.53125 -0.5 -1.265625q-0.140625 -0.734375 -0.140625 -1.609375q0 -2.125 0.703125 -3.109375q0.703125 -0.984375 1.859375 -0.984375q1.3125 0 1.84375 0.984375q0.546875 0.984375 0.546875 2.765625q0 0.15625 0 0.328125q0 0.15625 -0.015625 0.34375l-3.640625 0zm1.265625 -3.34375q-0.625 0 -0.921875 0.625q-0.28125 0.625 -0.34375 1.6875l2.34375 0q0 -1.0625 -0.234375 -1.6875q-0.21875 -0.625 -0.84375 -0.625z" fill-rule="nonzero"/><path fill="#000000" d="m594.86505 220.38077q0 0.546875 0.09375 1.015625q0.09375 0.453125 0.28125 0.8125q0.203125 0.34375 0.53125 0.53125q0.328125 0.1875 0.84375 0.1875q0.421875 0 0.78125 -0.125q0.359375 -0.125 0.53125 -0.21875l0.234375 1.015625q-0.203125 0.125 -0.65625 0.28125q-0.4375 0.15625 -1.046875 0.15625q-0.8125 0 -1.359375 -0.28125q-0.546875 -0.296875 -0.890625 -0.828125q-0.34375 -0.53125 -0.5 -1.265625q-0.140625 -0.734375 -0.140625 -1.609375q0 -2.125 0.703125 -3.109375q0.703125 -0.984375 1.859375 -0.984375q1.3125 0 1.84375 0.984375q0.546875 0.984375 0.546875 2.765625q0 0.15625 0 0.328125q0 0.15625 -0.015625 0.34375l-3.640625 0zm1.265625 -3.34375q-0.625 0 -0.921875 0.625q-0.28125 0.625 -0.34375 1.6875l2.34375 0q0 -1.0625 -0.234375 -1.6875q-0.21875 -0.625 -0.84375 -0.625zm4.2495117 -0.65625q0.546875 -0.171875 1.171875 -0.28125q0.640625 -0.109375 1.15625 -0.109375q0.578125 0 1.046875 0.15625q0.46875 0.15625 0.796875 0.53125q0.328125 0.359375 0.515625 0.984375q0.1875 0.625 0.1875 1.546875l0 4.640625l-1.265625 0l0 -4.546875q0 -1.140625 -0.296875 -1.65625q-0.296875 -0.53125 -1.09375 -0.53125q-0.421875 0 -0.953125 0.140625l0 6.59375l-1.265625 0l0 -7.46875zm8.655884 5.984375q0.171875 -0.578125 0.359375 -1.375q0.203125 -0.796875 0.390625 -1.625q0.203125 -0.84375 0.359375 -1.671875q0.171875 -0.84375 0.296875 -1.53125l1.25 0q-0.1875 0.953125 -0.453125 2.03125q-0.25 1.0625 -0.515625 2.109375q-0.265625 1.03125 -0.546875 1.953125q-0.28125 0.921875 -0.515625 1.59375l-1.3125 0q-0.234375 -0.671875 -0.515625 -1.59375q-0.265625 -0.921875 -0.546875 -1.953125q-0.265625 -1.046875 -0.53125 -2.109375q-0.25 -1.078125 -0.4375 -2.03125l1.328125 0q0.125 0.6875 0.296875 1.53125q0.171875 0.828125 0.34375 1.671875q0.1875 0.828125 0.375 1.625q0.1875 0.796875 0.375 1.375zm5.2873535 1.484375l-1.265625 0l0 -7.6875l1.265625 0l0 7.6875zm-0.640625 -9.0625q-0.328125 0 -0.578125 -0.21875q-0.234375 -0.234375 -0.234375 -0.609375q0 -0.390625 0.234375 -0.609375q0.25 -0.234375 0.578125 -0.234375q0.34375 0 0.578125 0.234375q0.25 0.21875 0.25 0.609375q0 0.375 -0.25 0.609375q-0.234375 0.21875 -0.578125 0.21875zm6.249939 2.515625q-0.46875 -0.203125 -1.046875 -0.203125q-0.546875 0 -1.015625 0.1875l0 6.5625l-1.265625 0l0 -7.359375q0.421875 -0.203125 0.96875 -0.34375q0.5625 -0.140625 1.21875 -0.140625q0.34375 0 0.6875 0.046875q0.359375 0.046875 0.671875 0.15625l-0.21875 1.09375zm6.2699585 2.703125q0 0.90625 -0.15625 1.65625q-0.15625 0.734375 -0.5 1.265625q-0.328125 0.53125 -0.828125 0.828125q-0.5 0.28125 -1.1875 0.28125q-0.6875 0 -1.203125 -0.28125q-0.515625 -0.296875 -0.84375 -0.828125q-0.328125 -0.53125 -0.5 -1.265625q-0.15625 -0.75 -0.15625 -1.65625q0 -0.890625 0.15625 -1.640625q0.171875 -0.75 0.5 -1.28125q0.328125 -0.53125 0.84375 -0.828125q0.515625 -0.296875 1.203125 -0.296875q0.6875 0 1.1875 0.296875q0.5 0.296875 0.828125 0.828125q0.34375 0.53125 0.5 1.28125q0.15625 0.75 0.15625 1.640625zm-1.3125 0q0 -0.640625 -0.078125 -1.171875q-0.078125 -0.546875 -0.234375 -0.921875q-0.15625 -0.390625 -0.421875 -0.59375q-0.265625 -0.21875 -0.625 -0.21875q-0.390625 0 -0.65625 0.21875q-0.25 0.203125 -0.421875 0.59375q-0.15625 0.375 -0.234375 0.921875q-0.078125 0.53125 -0.078125 1.171875q0 0.65625 0.078125 1.1875q0.078125 0.53125 0.234375 0.921875q0.171875 0.375 0.421875 0.59375q0.265625 0.203125 0.65625 0.203125q0.359375 0 0.625 -0.203125q0.265625 -0.21875 0.421875 -0.59375q0.15625 -0.390625 0.234375 -0.921875q0.078125 -0.53125 0.078125 -1.1875zm3.1608887 -3.625q0.546875 -0.171875 1.171875 -0.28125q0.640625 -0.109375 1.15625 -0.109375q0.578125 0 1.046875 0.15625q0.46875 0.15625 0.796875 0.53125q0.328125 0.359375 0.515625 0.984375q0.1875 0.625 0.1875 1.546875l0 4.640625l-1.265625 0l0 -4.546875q0 -1.140625 -0.296875 -1.65625q-0.296875 -0.53125 -1.09375 -0.53125q-0.421875 0 -0.953125 0.140625l0 6.59375l-1.265625 0l0 -7.46875zm7.064331 0q0.515625 -0.171875 1.109375 -0.28125q0.609375 -0.109375 1.109375 -0.109375q0.515625 0 0.921875 0.140625q0.421875 0.125 0.75 0.4375q0.375 -0.25 0.8125 -0.40625q0.4375 -0.171875 0.96875 -0.171875q0.53125 0 0.953125 0.15625q0.4375 0.15625 0.75 0.53125q0.3125 0.359375 0.484375 0.984375q0.171875 0.625 0.171875 1.546875l0 4.640625l-1.25 0l0 -4.546875q0 -1.140625 -0.265625 -1.65625q-0.265625 -0.53125 -1.0 -0.53125q-0.28125 0 -0.578125 0.109375q-0.28125 0.09375 -0.515625 0.265625q0.109375 0.328125 0.171875 0.765625q0.0625 0.421875 0.0625 0.953125l0 4.640625l-1.265625 0l0 -4.546875q0 -1.140625 -0.265625 -1.65625q-0.265625 -0.53125 -1.0 -0.53125q-0.375 0 -0.859375 0.140625l0 6.59375l-1.265625 0l0 -7.46875zm11.105103 4.0q0 0.546875 0.09375 1.015625q0.09375 0.453125 0.28125 0.8125q0.203125 0.34375 0.53125 0.53125q0.328125 0.1875 0.84375 0.1875q0.421875 0 0.78125 -0.125q0.359375 -0.125 0.53125 -0.21875l0.234375 1.015625q-0.203125 0.125 -0.65625 0.28125q-0.4375 0.15625 -1.046875 0.15625q-0.8125 0 -1.359375 -0.28125q-0.546875 -0.296875 -0.890625 -0.828125q-0.34375 -0.53125 -0.5 -1.265625q-0.140625 -0.734375 -0.140625 -1.609375q0 -2.125 0.703125 -3.109375q0.703125 -0.984375 1.859375 -0.984375q1.3125 0 1.84375 0.984375q0.546875 0.984375 0.546875 2.765625q0 0.15625 0 0.328125q0 0.15625 -0.015625 0.34375l-3.640625 0zm1.265625 -3.34375q-0.625 0 -0.921875 0.625q-0.28125 0.625 -0.34375 1.6875l2.34375 0q0 -1.0625 -0.234375 -1.6875q-0.21875 -0.625 -0.84375 -0.625zm4.2495117 -0.65625q0.546875 -0.171875 1.171875 -0.28125q0.640625 -0.109375 1.15625 -0.109375q0.578125 0 1.046875 0.15625q0.46875 0.15625 0.796875 0.53125q0.328125 0.359375 0.515625 0.984375q0.1875 0.625 0.1875 1.546875l0 4.640625l-1.265625 0l0 -4.546875q0 -1.140625 -0.296875 -1.65625q-0.296875 -0.53125 -1.09375 -0.53125q-0.421875 0 -0.953125 0.140625l0 6.59375l-1.265625 0l0 -7.46875zm8.236267 -0.21875l1.9375 0l0 1.078125l-1.9375 0l0 4.234375q0 0.796875 0.28125 1.109375q0.296875 0.3125 0.78125 0.3125q0.25 0 0.46875 -0.0625q0.234375 -0.078125 0.390625 -0.1875l0.25 1.015625q-0.59375 0.34375 -1.28125 0.34375q-1.078125 0 -1.609375 -0.609375q-0.53125 -0.609375 -0.53125 -2.015625l0 -7.296875l1.25 -0.21875l0 2.296875z" fill-rule="nonzero"/></g></svg>